<?xml version="1.0" standalone="no"?>
<!DOCTYPE svg PUBLIC "-//W3C//DTD SVG 1.1//EN" "http://www.w3.org/Graphics/SVG/1.1/DTD/svg11.dtd" >
<svg xmlns="http://www.w3.org/2000/svg" xmlns:xlink="http://www.w3.org/1999/xlink" version="1.1">
<metadata>
Created by FontForge 20170731 at Thu Feb  2 11:49:39 2023
 By Aleksey,,,
Copyright (c) 1985, 1987, 1989, 1990, 1991, 1992, 1997 Adobe Systems Incorporated.  All Rights Reserved.ITC Avant Garde Gothic is a registered trademark of International Typeface Corporation.
</metadata>
<defs>
<font id="AvantGardeCE-Demi" horiz-adv-x="1228" >
  <font-face 
    font-family="AvantGarde CE"
    font-weight="600"
    font-stretch="normal"
    units-per-em="2048"
    panose-1="4 0 7 0 0 0 0 0 0 0"
    ascent="1534"
    descent="-514"
    x-height="1137"
    cap-height="1516"
    bbox="-162 -514 2503 2091"
    underline-thickness="102"
    underline-position="-307"
    unicode-range="U+0020-25CA"
  />
<missing-glyph horiz-adv-x="573" 
 />
    <glyph glyph-name=".notdef" horiz-adv-x="573" 
 />
    <glyph glyph-name=".null" horiz-adv-x="0" 
 />
    <glyph glyph-name="nonmarkingreturn" horiz-adv-x="682" 
 />
    <glyph glyph-name="space" unicode=" " horiz-adv-x="573" 
 />
    <glyph glyph-name="space" unicode="&#xa0;" horiz-adv-x="573" 
 />
    <glyph glyph-name="exclam" unicode="!" horiz-adv-x="573" 
d="M150 385v1131h272v-1131h-272zM150 0v260h272v-260h-272z" />
    <glyph glyph-name="quotedbl" unicode="&#x22;" horiz-adv-x="737" 
d="M256 909h-164l-53 607h272zM645 909h-168l-51 607h272z" />
    <glyph glyph-name="numbersign" unicode="#" horiz-adv-x="1146" 
d="M1014 598l-8 -195h-177l-55 -403h-205l56 403h-187l-55 -403h-205l55 403h-174l9 195h194l33 238h-174l8 194h193l55 404h205l-56 -404h187l55 404h205l-55 -404h157l-8 -194h-176l-33 -238h156zM686 836h-186l-33 -238h186z" />
    <glyph glyph-name="dollar" unicode="$" horiz-adv-x="1146" 
d="M119 510h270q3 -49 22.5 -85.5t48.5 -55t56.5 -27t54.5 -8.5q68 0 125.5 46.5t57.5 129.5q0 28 -6.5 51.5t-15 40t-28.5 32t-33.5 24t-44 19.5t-46.5 16t-54 16q-96 27 -166 70.5t-109 97.5t-57 112.5t-18 124.5q0 137 74.5 240t206.5 139v262h258v-266
q110 -36 181 -127.5t83 -222.5h-256q-7 23 -13.5 38t-21.5 38.5t-41.5 36t-62.5 12.5q-51 0 -93 -40t-42 -102q0 -21 3 -38t13 -32t18 -25.5t29 -22.5t34 -18.5t45.5 -18t51 -17.5t62.5 -20q25 -7 42.5 -13.5t53.5 -23.5t62.5 -36.5t59 -53t53.5 -73t35.5 -96t14.5 -122.5
q0 -167 -90 -274.5t-221 -143.5v-270h-258v268q-66 18 -120 47.5t-88 61t-60 69t-38.5 68.5t-20.5 63t-9.5 49t-1.5 31v29z" />
    <glyph glyph-name="percent" unicode="%" horiz-adv-x="1761" 
d="M74 1176q0 154 108 262t260 108q154 0 261.5 -108t107.5 -262q0 -153 -108 -261t-261 -108q-151 0 -259.5 108t-108.5 261zM301 1176q0 -57 41.5 -99.5t99.5 -42.5q57 0 99.5 42t42.5 102t-41.5 100.5t-100.5 40.5t-100 -41t-41 -102zM944 340q0 154 108.5 262.5
t262.5 108.5q152 0 260 -108.5t108 -262.5t-109 -262.5t-259 -108.5q-152 0 -261.5 108t-109.5 263zM1171 340q0 -59 42 -101t102 -42q57 0 99 41.5t42 101.5q0 61 -41.5 102t-99.5 41q-61 0 -102.5 -42t-41.5 -101zM459 0l626 1516h209l-628 -1516h-207z" />
    <glyph glyph-name="ampersand" unicode="&#x26;" horiz-adv-x="1392" 
d="M1051 895h303l-260 -459l268 -291l-199 -176l-209 228q-22 -30 -41 -53.5t-57 -58.5t-76.5 -58.5t-94.5 -40.5t-116 -17q-88 0 -175.5 33t-160 92.5t-118 153t-45.5 203.5q0 54 11.5 103t28.5 86t44.5 72.5t49.5 57.5t55 46.5t50 35.5t45 27q-64 75 -95.5 136.5
t-31.5 147.5q0 114 56 203.5t143 134.5t186 45q161 0 276.5 -106.5t115.5 -268.5q0 -67 -19.5 -126t-44 -95.5t-63 -71t-60.5 -48.5t-53 -31l139 -156zM594 987q36 19 57 31.5t46 33.5t36.5 47.5t11.5 59.5q0 52 -32 90.5t-101 38.5q-52 0 -89.5 -36t-37.5 -89
q0 -31 17 -63.5t35.5 -53.5t56.5 -59zM764 403l-238 259q-27 -13 -42 -21t-46 -29.5t-48.5 -43t-32.5 -56t-15 -74.5q0 -94 63 -148t146 -54q34 0 65 12.5t51 27.5t42 43t30.5 42.5t24.5 41.5z" />
    <glyph glyph-name="quotesingle" unicode="'" horiz-adv-x="450" 
d="M309 909h-166l-53 607h272z" />
    <glyph glyph-name="parenleft" unicode="(" horiz-adv-x="778" 
d="M717 -27v-295q-52 19 -83 33t-89 55.5t-113 102.5q-32 36 -63.5 77.5t-72.5 114t-71 149.5t-51.5 182.5t-21.5 215.5q0 222 81.5 424t223.5 344q46 45 96.5 79.5t82.5 51t81 37.5v-295q-145 -118 -215 -287.5t-70 -351.5q0 -120 29 -230.5t75 -189.5t91.5 -132.5
t89.5 -84.5z" />
    <glyph glyph-name="parenright" unicode=")" horiz-adv-x="778" 
d="M76 1249v295q52 -19 82.5 -32.5t88.5 -55t113 -102.5q33 -36 64 -77.5t72.5 -114t71.5 -150t51.5 -183t21.5 -215.5q0 -222 -81.5 -424t-223.5 -344q-46 -45 -96.5 -79.5t-82.5 -51t-81 -37.5v295q145 118 214.5 287t69.5 352q0 120 -29 230.5t-75 189.5t-91 132.5
t-89 84.5z" />
    <glyph glyph-name="asterisk" unicode="*" horiz-adv-x="901" 
d="M453 1358l104 188l115 -80l-115 -170l209 11l-2 -138l-207 11l115 -170l-125 -74l-94 188l-97 -188l-125 74l117 170l-209 -11l-2 138l209 -11l-113 170l115 80z" />
    <glyph glyph-name="plus" unicode="+" 
d="M492 641v395h245v-395h393v-246h-393v-395h-245v395h-394v246h394z" />
    <glyph glyph-name="comma" unicode="," horiz-adv-x="573" 
d="M150 0v272h272v-288q0 -63 -18.5 -113t-47.5 -79.5t-66 -48.5t-71 -26t-67 -6v137q20 4 31 7t30 12t29.5 20t19 31.5t8.5 46.5v35h-120z" />
    <glyph glyph-name="hyphen" unicode="-" horiz-adv-x="860" 
d="M145 471v242h570v-242h-570z" />
    <glyph glyph-name="hyphen" unicode="&#xad;" horiz-adv-x="860" 
d="M145 471v242h570v-242h-570z" />
    <glyph glyph-name="period" unicode="." horiz-adv-x="573" 
d="M150 0v272h272v-272h-272z" />
    <glyph glyph-name="slash" unicode="/" horiz-adv-x="942" 
d="M12 -205l641 1721h277l-643 -1721h-275z" />
    <glyph glyph-name="zero" unicode="0" horiz-adv-x="1146" 
d="M1083 1036v-559q0 -120 -42 -218t-112.5 -160.5t-161.5 -96t-192 -33.5q-115 0 -205.5 38.5t-179.5 127.5q-63 63 -93.5 147.5t-30.5 209.5v544q0 104 30.5 190t81 144.5t118 99t140 58.5t148.5 18q89 0 175.5 -32t160 -93t118.5 -161t45 -224zM811 502v532
q0 111 -68 182.5t-165 71.5q-103 0 -171.5 -70t-68.5 -194v-516q0 -66 16.5 -117.5t41 -81.5t57.5 -49.5t62.5 -26t59.5 -6.5q27 0 54.5 5.5t61.5 23t59.5 46.5t43 80.5t17.5 119.5z" />
    <glyph glyph-name="one" unicode="1" horiz-adv-x="1146" 
d="M471 0v1257h-190v259h462v-1516h-272z" />
    <glyph glyph-name="two" unicode="2" horiz-adv-x="1146" 
d="M90 0v258l541 504q101 94 134.5 163.5t33.5 135.5q0 111 -67 169t-154 58q-72 0 -123.5 -36.5t-79.5 -86.5q-29 -55 -29 -170h-270q-2 20 -2 49q0 91 34 180t95.5 161t157.5 116.5t210 44.5q112 0 208 -42.5t158.5 -113t98 -159.5t35.5 -182q0 -127 -64 -249t-229 -268
l-307 -274h600v-258h-981z" />
    <glyph glyph-name="three" unicode="3" horiz-adv-x="1146" 
d="M471 725v258h47q81 0 136 39.5t55 122.5q0 75 -39 109t-97 34q-46 0 -78 -27t-43 -56t-14 -56h-272q6 72 26.5 132t49 100t65.5 71t72.5 48t73.5 28t65 14.5t51 3.5q173 0 292.5 -123t119.5 -286q0 -172 -131 -269q68 -28 117 -76t71.5 -91.5t35.5 -97.5t14.5 -77.5
t1.5 -48.5q0 -114 -44 -211t-117.5 -161t-167 -100t-192.5 -36q-95 0 -184 34t-159.5 95t-116 154.5t-52.5 204.5h273q8 -76 50 -130.5t93 -77t102 -22.5q92 0 167 69.5t75 176.5q0 48 -16.5 91t-50 80t-94 59t-140.5 22h-45z" />
    <glyph glyph-name="four" unicode="4" horiz-adv-x="1146" 
d="M31 451l696 1065h229v-1031h160v-258h-160v-227h-272v227h-653v224zM324 485h360v570h-4z" />
    <glyph glyph-name="five" unicode="5" horiz-adv-x="1146" 
d="M119 723l143 793h686v-259h-481l-49 -278q94 43 194 43q137 0 249.5 -75t173.5 -194.5t61 -254.5q0 -138 -66 -258.5t-188.5 -195.5t-272.5 -75q-132 0 -249.5 65t-190 176.5t-78.5 240.5h273q10 -50 29.5 -90t44 -64.5t54 -40.5t56.5 -22.5t55 -6.5q121 0 190.5 84
t69.5 187q0 100 -71.5 183t-184.5 83q-53 0 -97.5 -20.5t-63.5 -39t-44 -49.5z" />
    <glyph glyph-name="six" unicode="6" horiz-adv-x="1146" 
d="M592 1513h319l-336 -512q27 7 74 7q81 -1 161 -36t144 -97t104 -157t40 -204q0 -156 -74 -282.5t-193.5 -194.5t-257.5 -68q-102 0 -197 39t-168 107.5t-117 172t-44 224.5q0 93 35 188q42 104 88 170zM319 500q0 -114 73 -193.5t181 -79.5q78 0 137 41.5t87 100
t28 120.5q0 110 -75 188.5t-183 78.5q-76 0 -134.5 -41t-86 -98.5t-27.5 -116.5z" />
    <glyph glyph-name="seven" unicode="7" horiz-adv-x="1146" 
d="M170 0l565 1257h-608v259h893v-259l-547 -1257h-303z" />
    <glyph glyph-name="eight" unicode="8" horiz-adv-x="1146" 
d="M293 842q-27 27 -43 46t-41.5 56.5t-38 84t-12.5 99.5q0 78 28.5 152t79.5 133.5t131.5 96t175.5 36.5q96 0 176.5 -36.5t132 -96t80.5 -133.5t29 -152q0 -53 -13 -99.5t-39 -84.5t-41.5 -56t-43.5 -46q225 -122 225 -381q0 -137 -71.5 -251t-187.5 -177.5t-247 -63.5
t-247 63.5t-187 177.5t-71 251q0 259 225 381zM735 1124q0 68 -47.5 116t-114.5 48q-66 0 -112.5 -48t-46.5 -116q0 -66 46.5 -113.5t112.5 -47.5q67 0 114.5 47.5t47.5 113.5zM807 461q0 97 -68.5 165t-165.5 68t-165 -68t-68 -165t68 -165.5t165 -68.5t165.5 68.5
t68.5 165.5z" />
    <glyph glyph-name="nine" unicode="9" horiz-adv-x="1146" 
d="M555 0h-319l335 512q-23 -6 -73 -6q-81 1 -161 36t-144 97t-104 156.5t-40 203.5q0 156 73.5 282.5t193 194.5t257.5 68q102 0 197 -39t168.5 -107.5t117.5 -172t44 -224.5q0 -93 -35 -188q-43 -104 -88 -170zM827 1014q0 113 -72.5 192.5t-179.5 79.5
q-116 0 -184.5 -81.5t-68.5 -180.5q0 -116 70.5 -191t182.5 -75q59 0 108 24t79.5 62t47.5 82.5t17 87.5z" />
    <glyph glyph-name="colon" unicode=":" horiz-adv-x="573" 
d="M150 0v272h272v-272h-272zM150 864v273h272v-273h-272z" />
    <glyph glyph-name="semicolon" unicode=";" horiz-adv-x="573" 
d="M150 0v272h272v-288q0 -63 -18.5 -113t-47.5 -79.5t-66 -48.5t-71 -26t-67 -6v137q20 4 31 7t30 12t29.5 20t19 31.5t8.5 46.5v35h-120zM150 864v273h272v-273h-272z" />
    <glyph glyph-name="less" unicode="&#x3c;" 
d="M1135 219v-235l-1041 438v192l1041 439v-236l-721 -299z" />
    <glyph glyph-name="equal" unicode="=" 
d="M1130 870v-245h-1032v245h1032zM1130 412v-246h-1032v246h1032z" />
    <glyph glyph-name="greater" unicode="&#x3e;" 
d="M94 219l721 299l-721 299v236l1041 -439v-192l-1041 -438v235z" />
    <glyph glyph-name="question" unicode="?" horiz-adv-x="1146" 
d="M668 383h-273v59q0 256 183 410q84 70 119.5 117t35.5 110q0 56 -19 96.5t-50 60.5t-61.5 29t-61.5 9q-46 0 -80 -14t-52.5 -32t-32 -50t-17.5 -52t-9 -53h-272q8 97 37.5 175t67 126t89 83.5t92.5 51.5t88 25.5t64.5 10.5t32.5 1q89 0 171 -32t146 -90t102 -147.5
t38 -197.5q0 -87 -41 -171.5t-166 -200.5q-33 -28 -51 -46.5t-39.5 -49t-31 -69.5t-9.5 -89v-70zM395 0v272h273v-272h-273z" />
    <glyph glyph-name="at" unicode="@" horiz-adv-x="1515" 
d="M741 449q76 0 138 53.5t93.5 127.5t31.5 146q0 76 -43.5 125t-114.5 49q-76 0 -139 -51t-95 -123.5t-32 -144.5q0 -81 43 -131.5t118 -50.5zM1059 981l31 113h170l-138 -525q-16 -44 -15 -82t36 -38q80 0 156.5 113.5t76.5 254.5q0 155 -71.5 269.5t-189.5 171.5t-265 57
q-164 0 -298 -81t-208 -218.5t-74 -302.5q0 -172 78 -308t215 -211t307 -75q129 0 247.5 49t197.5 137h155q-99 -156 -260 -243t-348 -87q-156 0 -296.5 57t-242 155.5t-161.5 237t-60 294.5q0 153 60 290.5t161 235.5t239.5 155.5t289.5 57.5q134 0 258.5 -44.5t218.5 -123
t150.5 -193.5t56.5 -247q0 -112 -35.5 -209.5t-90.5 -162.5t-121 -112t-127.5 -68.5t-110.5 -21.5q-48 0 -82 30.5t-37 86.5h-4q-85 -117 -223 -117q-126 0 -215 97.5t-89 232.5q0 96 32 188.5t88 165.5t140.5 117.5t180.5 44.5q75 0 131.5 -34.5t81.5 -106.5h4z" />
    <glyph glyph-name="A" unicode="A" horiz-adv-x="1515" 
d="M14 0l631 1516h219l635 -1516h-309l-162 391h-543l-161 -391h-310zM752 1120l-172 -465h348l-172 465h-4z" />
    <glyph glyph-name="B" unicode="B" horiz-adv-x="1187" 
d="M143 0v1516h299q67 0 102.5 -1t95 -7t99 -17.5t86 -34.5t84.5 -57q58 -52 93.5 -129t35.5 -154q0 -54 -14 -100.5t-31.5 -75t-45 -55t-43 -36.5t-36.5 -22q36 -13 66 -28.5t68 -46.5t64 -69t44 -98.5t18 -133.5q0 -226 -188 -361q-129 -90 -391 -90h-406zM424 664v-402
h141q19 0 33.5 0.5t46 4.5t55.5 10.5t53.5 21.5t48.5 35.5t32.5 53t13.5 73.5q0 22 -5 45t-22 52.5t-45.5 52t-81.5 38t-123 15.5h-147zM424 1253v-327h92q25 0 41.5 1t49.5 5t55.5 14.5t46.5 27.5t36.5 47t12.5 69q0 73 -52 118t-165 45h-117z" />
    <glyph glyph-name="C" unicode="C" horiz-adv-x="1597" 
d="M1235 422h326q-88 -206 -283.5 -329.5t-417.5 -123.5q-161 0 -307.5 64.5t-252 172t-168 254t-62.5 304.5q0 154 61.5 298t165.5 250t250 170t307 64q98 0 198.5 -26.5t198 -79.5t182 -145t136.5 -212h-320q-175 201 -405 201q-92 0 -181 -40t-158.5 -108t-112 -167
t-42.5 -209q0 -105 41.5 -202.5t110 -169t161 -114.5t191.5 -43q58 0 112 14t89.5 31t75.5 48.5t57 48.5t47 49z" />
    <glyph glyph-name="D" unicode="D" horiz-adv-x="1433" 
d="M129 0v1516h344q418 0 623 -177q111 -95 180.5 -253t69.5 -332q0 -205 -99 -385.5t-264 -270.5q-175 -98 -504 -98h-350zM410 1253v-991h59q123 0 204 14.5t165 59.5q108 59 167.5 174.5t59.5 243.5q0 109 -43.5 208t-118.5 164q-82 74 -187 100.5t-253 26.5h-53z" />
    <glyph glyph-name="E" unicode="E" horiz-adv-x="1064" 
d="M125 0v1516h815v-263h-534v-370h512v-262h-512v-359h534v-262h-815z" />
    <glyph glyph-name="F" unicode="F" horiz-adv-x="983" 
d="M125 0v1516h772v-263h-491v-370h468v-262h-468v-621h-281z" />
    <glyph glyph-name="G" unicode="G" horiz-adv-x="1720" 
d="M684 510v262h989v-33q0 -127 -42.5 -245.5t-118.5 -212.5t-176 -165t-220.5 -109t-245.5 -38q-161 0 -310 60t-260.5 163t-178 251t-66.5 315q0 163 66 310.5t176.5 251.5t258 165t306.5 61q110 0 214.5 -28.5t186.5 -76t150.5 -109.5t114 -128.5t69.5 -132.5h-335
q-58 87 -163 150t-243 63q-99 0 -185 -32t-146.5 -85.5t-103.5 -122t-64 -142t-21 -146.5q0 -71 20.5 -143.5t64.5 -141t105 -122t150.5 -86t193.5 -32.5q141 0 262.5 74t186.5 205h-635z" />
    <glyph glyph-name="H" unicode="H" horiz-adv-x="1392" 
d="M145 0v1516h281v-617h543v617h280v-1516h-280v637h-543v-637h-281z" />
    <glyph glyph-name="I" unicode="I" horiz-adv-x="573" 
d="M147 0v1516h281v-1516h-281z" />
    <glyph glyph-name="J" unicode="J" horiz-adv-x="983" 
d="M557 1516h281v-1086q0 -84 -17.5 -153.5t-45 -116t-65.5 -82.5t-75.5 -56t-79 -32.5t-72.5 -16.5t-59 -4q-103 0 -182 38.5t-127 92.5q-86 98 -111 256h283q27 -125 133 -125q43 0 72 19t42 49.5t18 57.5t5 55v1104z" />
    <glyph glyph-name="K" unicode="K" horiz-adv-x="1269" 
d="M182 0v1516h281v-656h4l473 656h330l-572 -746l572 -770h-330l-473 666h-4v-666h-281z" />
    <glyph glyph-name="L" unicode="L" horiz-adv-x="901" 
d="M147 0v1516h281v-1254h463v-262h-744z" />
    <glyph glyph-name="M" unicode="M" horiz-adv-x="1843" 
d="M129 0v1516h389l404 -1147h4l399 1147h389v-1516h-280v1137h-7l-387 -1137h-237l-389 1137h-4v-1137h-281z" />
    <glyph glyph-name="N" unicode="N" horiz-adv-x="1515" 
d="M143 0v1516h320l627 -1102h4v1102h280v-1516h-313l-633 1102h-4v-1102h-281z" />
    <glyph glyph-name="O" unicode="O" horiz-adv-x="1720" 
d="M68 754q0 220 108 402.5t289.5 286t394.5 103.5q159 0 305 -61t253 -166t171 -252.5t64 -312.5q0 -160 -63 -305.5t-169.5 -250.5t-253 -167t-307.5 -62q-215 0 -397 105t-288.5 286t-106.5 394zM348 756q0 -139 67 -259.5t185.5 -193t259.5 -72.5t259.5 72.5t185.5 193
t67 259.5q0 143 -68 264.5t-186 192.5t-258 71t-258 -71t-186 -192.5t-68 -264.5z" />
    <glyph glyph-name="P" unicode="P" horiz-adv-x="1146" 
d="M147 0v1516h381q80 0 121.5 -2t104.5 -12.5t115.5 -37t103.5 -69.5q143 -131 143 -348q0 -218 -143 -349q-41 -35 -87.5 -59t-82.5 -36t-91.5 -17.5t-87 -6.5t-96.5 -1h-100v-578h-281zM428 1253v-413h90q38 0 66 1.5t69 7.5t70 20t56.5 35.5t42 58t14.5 84.5
q0 57 -22 97.5t-52 61t-77.5 32t-79.5 13.5t-77 2h-100z" />
    <glyph glyph-name="Q" unicode="Q" horiz-adv-x="1720" 
d="M1688 231v-262h-39q-63 0 -119 11.5t-105 35t-73 37.5t-64 41q-195 -125 -430 -125q-215 0 -397 105t-288.5 286t-106.5 394q0 220 108 402.5t289.5 286t394.5 103.5q158 0 303.5 -61t253 -164.5t172 -249.5t64.5 -307q0 -76 -13 -147t-28 -116t-43 -95.5t-41.5 -69.5
t-40.5 -55q36 -27 82 -38.5t75 -11.5h46zM1065 276q-153 113 -274 160t-236 47q-65 0 -121 -18q41 -64 98 -112.5t115.5 -74t112 -37.5t98.5 -10q17 0 32.5 1t30.5 3t26.5 4t25.5 5.5t22 6t21 7t17.5 6t17 6.5t14.5 6zM1260 440h4q0 1 12 17t14 19.5t13 20.5t14.5 25t13 27
t13 32.5t10 35t9 41.5t5 45.5t2.5 52.5q0 111 -41.5 210t-111 168t-163.5 109.5t-196 40.5q-92 0 -173 -29.5t-140.5 -80t-104 -115.5t-68 -138t-26.5 -147q0 -31 4 -47q99 22 207 18q111 0 224.5 -31.5t195.5 -75.5t148.5 -89.5t100.5 -76t34 -32.5z" />
    <glyph glyph-name="R" unicode="R" horiz-adv-x="1187" 
d="M131 0v1516h465q129 0 216.5 -25t152.5 -78q76 -62 127 -154.5t51 -211.5q0 -88 -35.5 -190t-110.5 -173q-42 -40 -91 -67t-79.5 -36.5t-81.5 -21.5l412 -559h-340l-401 580h-4v-580h-281zM412 1253v-462h180q66 0 116.5 17t78.5 41.5t46 58t23.5 61t5.5 55.5t-6.5 56.5
t-25.5 60.5t-48 56t-78 40t-112 16h-180z" />
    <glyph glyph-name="S" unicode="S" horiz-adv-x="1064" 
d="M25 434h294q10 -105 68 -154t133 -49q86 0 147.5 53.5t61.5 137.5q0 43 -12.5 76t-27.5 54t-55 43t-67.5 33.5t-92.5 36.5q-7 3 -11.5 4.5t-11 4t-11.5 4.5q-7 3 -21 8q-37 14 -58.5 22.5t-61.5 29.5t-65.5 41t-58 54.5t-51 72.5t-31.5 92t-13 116q0 183 126.5 307.5
t317.5 124.5q55 0 113 -15t117 -48.5t105.5 -82.5t78 -123t35.5 -163h-287q-4 48 -20.5 83t-41 53t-51 26t-57.5 8q-67 0 -111.5 -43.5t-44.5 -110.5q0 -27 6.5 -49t14 -38t28 -32t33.5 -25t45.5 -22t50 -19t59.5 -20q10 -3 15 -5q36 -12 62 -21.5t71 -31t77 -44.5t70 -60.5
t62 -80t40 -102t16 -127.5q0 -118 -43 -213t-114 -152.5t-157 -88t-178 -30.5q-61 0 -124.5 16t-128.5 52t-116 88.5t-85 132.5t-39 176z" />
    <glyph glyph-name="T" unicode="T" horiz-adv-x="860" 
d="M293 0v1253h-281v263h844v-263h-283v-1253h-280z" />
    <glyph glyph-name="U" unicode="U" horiz-adv-x="1310" 
d="M113 1516h282l-2 -963q0 -322 262 -322q263 0 263 322v963h280v-963q0 -236 -88 -358q-71 -100 -188.5 -163t-264.5 -63q-82 0 -157 21t-131 55.5t-95 69t-67 71.5q-94 127 -94 367v963z" />
    <glyph glyph-name="V" unicode="V" horiz-adv-x="1433" 
d="M606 0l-590 1516h295l406 -1154h4l407 1154h295l-587 -1516h-230z" />
    <glyph glyph-name="W" unicode="W" horiz-adv-x="1843" 
d="M457 0l-443 1516h287l262 -1059h4l260 1059h205l254 -1059h4l264 1059h287l-440 -1516h-223l-246 1001h-4l-250 -1001h-221z" />
    <glyph glyph-name="X" unicode="X" horiz-adv-x="1392" 
d="M8 0l522 756l-522 760h334l354 -529l365 529h323l-524 -760l524 -756h-323l-365 524l-354 -524h-334z" />
    <glyph glyph-name="Y" unicode="Y" horiz-adv-x="1269" 
d="M494 0v559l-498 957h307l330 -697l332 697h309l-500 -957v-559h-280z" />
    <glyph glyph-name="Z" unicode="Z" horiz-adv-x="1024" 
d="M39 229l579 1024h-548v263h876v-244l-575 -1010h614v-262h-946v229z" />
    <glyph glyph-name="bracketleft" unicode="[" horiz-adv-x="655" 
d="M582 1544v-299q-24 -12 -35 -18t-32.5 -21.5t-32 -31.5t-25.5 -45t-22.5 -64.5t-13 -87t-5.5 -115.5v-543q0 -77 12.5 -136.5t27.5 -92.5t42 -59t42 -34t42 -20v-299q-447 104 -447 691v551q0 79 12.5 149.5t31 123.5t49 100t57.5 78.5t66.5 60.5t66 45t65 32t55 21
t44.5 14z" />
    <glyph glyph-name="backslash" unicode="\" horiz-adv-x="1310" 
d="M473 1516l641 -1721h-274l-643 1721h276z" />
    <glyph glyph-name="bracketright" unicode="]" horiz-adv-x="655" 
d="M74 -322v302q27 13 40.5 20.5t37 26t36 43.5t26.5 64t20 96.5t6 131.5v541q0 77 -12.5 136.5t-27.5 92.5t-42 59t-42 34t-42 20v299q446 -104 446 -690v-551q0 -79 -12.5 -149.5t-31 -123.5t-48.5 -100t-57.5 -79t-66.5 -61t-65.5 -45t-65 -31.5t-55 -21.5t-44.5 -14z
" />
    <glyph glyph-name="asciicircum" unicode="^" 
d="M393 768h-243l356 748h217l356 -748h-245l-220 508z" />
    <glyph glyph-name="underscore" unicode="_" horiz-adv-x="1024" 
d="M1024 -256h-1024v102h1024v-102z" />
    <glyph glyph-name="grave" unicode="`" horiz-adv-x="860" 
d="M102 1534l117 209l455 -277l-109 -188z" />
    <glyph glyph-name="a" unicode="a" horiz-adv-x="1351" 
d="M1255 1137v-1137h-249v141q-65 -77 -178 -127.5t-220 -50.5q-110 0 -210 43t-176.5 120t-121.5 194t-45 255q0 170 76.5 308.5t207 215.5t286.5 77q65 0 126.5 -17.5t103.5 -42t76 -52.5t50 -46t20 -25h5v144h249zM997 571q0 85 -28.5 154.5t-76.5 112t-106 65.5t-120 23
q-80 0 -146 -32.5t-107 -85.5t-63 -116.5t-22 -128.5q0 -146 96.5 -248t241.5 -102q142 0 236.5 100.5t94.5 257.5z" />
    <glyph glyph-name="b" unicode="b" horiz-adv-x="1351" 
d="M96 0v1516h273v-482q69 69 162.5 105.5t191.5 36.5q126 0 234.5 -52t181 -137t114 -193t41.5 -221q0 -59 -13.5 -124t-40.5 -134.5t-73 -131.5t-106 -112t-146 -79t-186 -29q-78 0 -141 15t-109.5 45t-73 53.5t-59.5 60.5v-137h-250zM352 584q0 -73 20 -135t54 -104.5
t78.5 -73t92.5 -44.5t97 -14q138 0 233 98.5t95 259.5q0 159 -98.5 257t-233.5 98q-100 0 -179 -51.5t-119 -128.5t-40 -162z" />
    <glyph glyph-name="c" unicode="c" horiz-adv-x="1310" 
d="M942 371h307q-69 -191 -219.5 -299.5t-349.5 -108.5q-88 0 -174.5 27t-164 80t-137 125t-94 170t-34.5 208q0 127 50 240.5t133 192t193 124.5t226 46q49 0 103.5 -9t125.5 -37t132 -72t119 -121t91 -177h-307q-14 25 -24 40t-34.5 42t-50 43t-66.5 28.5t-89 12.5
q-85 0 -159 -39.5t-122.5 -122.5t-48.5 -195q0 -150 95.5 -253t246.5 -103q153 0 252 158z" />
    <glyph glyph-name="d" unicode="d" horiz-adv-x="1351" 
d="M1266 1516v-1516h-250v139h-4q-45 -72 -137.5 -124t-225.5 -52q-109 0 -212.5 43.5t-185 120t-131.5 192t-50 248.5q0 111 34 210t91.5 170.5t132 124t157 78.5t164.5 26q117 0 198 -36t146 -104v480h273zM342 578q0 -155 100 -260t236 -105q74 0 138.5 31.5t107 82
t66.5 114t24 128.5q0 143 -97 250t-239 107q-73 0 -137.5 -32t-107 -82.5t-67 -112t-24.5 -121.5z" />
    <glyph glyph-name="e" unicode="e" horiz-adv-x="1310" 
d="M1233 446h-883q5 -30 27.5 -68t60 -76t97.5 -63.5t129 -25.5q183 0 262 145h286q-52 -162 -203.5 -278.5t-344.5 -116.5q-169 0 -307.5 81t-216 219t-77.5 302q0 162 73.5 300.5t212.5 224.5t313 86q108 0 203.5 -34t164.5 -92t119 -133.5t75 -160.5t25 -172
q0 -64 -16 -138zM342 666h629q-22 130 -106.5 195t-200.5 65q-36 0 -71.5 -6.5t-75 -24.5t-72 -46t-60.5 -75t-43 -108z" />
    <glyph glyph-name="f" unicode="f" horiz-adv-x="573" 
d="M127 0v895h-96v242h96q3 41 7.5 69.5t17.5 76.5t40.5 91.5t67.5 79.5q47 44 110.5 68t127.5 24h75v-268q-28 -1 -42.5 -1.5t-36 -3.5t-32 -8.5t-24 -15.5t-20 -24.5t-12 -36.5t-7.5 -51h160v-242h-160v-895h-272z" />
    <glyph glyph-name="g" unicode="g" horiz-adv-x="1351" 
d="M1012 1137h264v-928q0 -113 -23.5 -209t-62 -163.5t-91.5 -121t-109 -86.5t-118 -54.5t-114.5 -29.5t-102.5 -8q-120 0 -229.5 40t-202 127t-139.5 210h311q106 -127 281 -127q60 0 118 21t108.5 62.5t83.5 111.5t38 159l-4 4q-132 -182 -373 -182q-104 0 -207 43.5
t-186.5 121t-135.5 196t-52 256.5q0 129 50 242.5t131.5 189.5t185.5 120t212 44q240 0 363 -179h4v140zM1004 580q0 61 -24 122.5t-66.5 111.5t-106.5 81t-137 31q-130 0 -231 -97t-101 -251q0 -110 51 -195.5t127.5 -127.5t161.5 -42q130 0 228 102t98 265z" />
    <glyph glyph-name="h" unicode="h" 
d="M111 0v1516h272v-459q126 119 295 119q95 0 191.5 -48.5t158.5 -126.5q32 -40 52 -89.5t27 -105t9 -87t2 -78.5v-641h-272v582q0 33 -1 58t-6 63.5t-14 66.5t-26.5 59t-41.5 51t-61 33t-84 13t-84.5 -15t-61 -36.5t-40.5 -56t-25 -62.5t-12.5 -68t-5 -59.5t-0.5 -50.5
v-578h-272z" />
    <glyph glyph-name="i" unicode="i" horiz-adv-x="491" 
d="M109 0v1137h272v-1137h-272zM109 1266v250h272v-250h-272z" />
    <glyph glyph-name="j" unicode="j" horiz-adv-x="532" 
d="M147 1137h273v-1088q0 -190 -105 -308.5t-282 -119.5v266q37 4 55 10t33.5 23.5t20.5 48.5t5 86v1082zM147 1266v250h273v-250h-273z" />
    <glyph glyph-name="k" unicode="k" horiz-adv-x="1187" 
d="M164 0v1516h272v-914h4l363 535h313l-409 -557l462 -580h-344l-385 532h-4v-532h-272z" />
    <glyph glyph-name="l" unicode="l" horiz-adv-x="491" 
d="M111 0v1516h272v-1516h-272z" />
    <glyph glyph-name="m" unicode="m" horiz-adv-x="1925" 
d="M111 0v1137h249v-97h5q9 15 20.5 29t37 34.5t56 35.5t79 26t104.5 11q31 0 64 -5.5t81 -21.5t96.5 -55.5t85.5 -96.5q125 179 367 179q78 0 145 -18.5t112 -49.5t71.5 -56.5t46.5 -52.5q86 -113 86 -335v-664h-273v631q0 295 -215 295q-57 0 -108 -29t-80 -78
q-20 -31 -29.5 -84t-10.5 -81.5t-1 -86.5v-567h-273v631q0 61 -12 112.5t-38 93.5t-71 65.5t-106 23.5q-45 0 -80.5 -14.5t-57.5 -34.5t-38 -55t-24 -62t-12 -69.5t-4.5 -64.5t-0.5 -59v-567h-272z" />
    <glyph glyph-name="n" unicode="n" 
d="M111 0v1137h251v-99q28 27 46 41.5t59.5 41.5t94 41t112.5 14q85 0 181 -39.5t161 -118.5q36 -44 59.5 -100t32 -119t10.5 -99t2 -86v-614h-272v561q0 365 -230 365q-45 0 -99 -24.5t-87 -76.5q-23 -32 -34.5 -87t-13 -93t-1.5 -104v-541h-272z" />
    <glyph glyph-name="o" unicode="o" horiz-adv-x="1310" 
d="M657 -37q-124 0 -237 49t-193.5 130.5t-128 193t-47.5 231.5q0 126 49 239.5t131.5 194t193.5 128t232 47.5q119 0 229.5 -46t193 -125.5t131.5 -193t49 -240.5q0 -136 -50 -252t-133.5 -193t-192.5 -120t-227 -43zM657 213q144 0 237 105.5t93 246.5q0 152 -99.5 256.5
t-230.5 104.5q-55 0 -112 -23.5t-107 -66t-82 -113.5t-32 -156q0 -156 99.5 -255t233.5 -99z" />
    <glyph glyph-name="p" unicode="p" horiz-adv-x="1351" 
d="M96 -379v1516h250v-133h4q135 172 369 172q134 0 245 -54.5t180 -142t106.5 -193t37.5 -213.5q0 -166 -74.5 -306t-205.5 -222t-289 -82q-69 0 -124 12t-98.5 37t-67.5 44t-60 53v-488h-273zM352 569q0 -72 22 -133t57.5 -101.5t80 -68.5t88.5 -40.5t84 -12.5
q56 0 113.5 23.5t107 66.5t80.5 113t31 153q0 152 -99 254.5t-229 102.5q-134 0 -235 -99.5t-101 -257.5z" />
    <glyph glyph-name="q" unicode="q" horiz-adv-x="1351" 
d="M1006 1137h249v-1516h-272v488q-46 -50 -102.5 -83t-110.5 -45t-81 -15t-52 -3q-166 0 -299.5 89.5t-204 229.5t-70.5 298q0 160 78.5 297.5t211.5 218t286 80.5q66 0 123 -14.5t93 -33t68.5 -47.5t47 -46.5t30.5 -41.5h5v144zM336 573q0 -164 99.5 -262t234.5 -98
q93 0 169 50.5t117 131.5t41 172q0 141 -92.5 250t-236.5 109q-143 0 -237.5 -105t-94.5 -248z" />
    <glyph glyph-name="r" unicode="r" horiz-adv-x="655" 
d="M129 0v1137h250v-101h4q24 34 41 54t46 42.5t67.5 33t89.5 10.5h22v-265q-51 -2 -91.5 -15t-66 -30.5t-44 -45t-27 -48.5t-13.5 -51.5t-5.5 -45t-0.5 -36.5v-639h-272z" />
    <glyph glyph-name="s" unicode="s" horiz-adv-x="901" 
d="M831 827h-266q-20 99 -108 99q-48 0 -76.5 -30.5t-28.5 -68.5q0 -45 35 -66t148 -58q3 -1 5.5 -1.5t4.5 -1.5q52 -16 88.5 -30t83 -42t75.5 -61.5t49.5 -87t20.5 -119.5q0 -93 -34.5 -169.5t-91 -125.5t-127 -75.5t-144.5 -26.5q-95 0 -187 36.5t-153 113.5
q-32 40 -51.5 88t-25 79.5t-9.5 77.5h278q5 -21 9.5 -35.5t16 -37t26.5 -36.5t40.5 -25t57.5 -11q60 0 91.5 36.5t31.5 78.5q0 55 -46 86q-38 26 -191 78h-1h-1l-1 1h-1h-1l-1 1h-1h-1l-1 1h-1h-1l-1 1h-1l-2 1h-1h-1l-1 1h-1q-52 17 -95 43.5t-80 65t-58 94t-21 122.5
q0 106 58 188.5t144 123.5t179 41q65 0 128.5 -23.5t116.5 -66t87 -110.5t38 -149z" />
    <glyph glyph-name="t" unicode="t" horiz-adv-x="614" 
d="M176 0v895h-133v242h133v379h273v-379h163v-242h-163v-895h-273z" />
    <glyph glyph-name="u" unicode="u" 
d="M842 1137h272v-1137h-250v115h-4q-22 -30 -41.5 -50.5t-55 -47t-85.5 -40.5t-111 -14q-139 0 -233 53t-148 127q-29 42 -48 96.5t-26 117t-8.5 98t-1.5 88.5v594h273v-580v-36.5t2.5 -43.5t6 -50.5t12 -50.5t20 -50.5t29.5 -43.5t41 -37t55.5 -23t70.5 -9q62 0 108 27.5
t72 76.5t38 108t12 130v582z" />
    <glyph glyph-name="v" unicode="v" horiz-adv-x="1146" 
d="M465 0l-459 1137h295l274 -754h7l258 754h299l-461 -1137h-213z" />
    <glyph glyph-name="w" unicode="w" horiz-adv-x="1638" 
d="M432 0l-409 1137h290l207 -695h4l187 695h217l184 -695h4l209 695h291l-416 -1137h-168l-213 737h-4l-215 -737h-168z" />
    <glyph glyph-name="x" unicode="x" horiz-adv-x="1146" 
d="M6 0l404 586l-353 551h305l209 -342l207 342h305l-352 -551l408 -586h-324l-244 389l-241 -389h-324z" />
    <glyph glyph-name="y" unicode="y" horiz-adv-x="1187" 
d="M223 -379l209 485l-416 1031h312l258 -729l274 729h309l-653 -1516h-293z" />
    <glyph glyph-name="z" unicode="z" horiz-adv-x="942" 
d="M41 0v250l504 637h-447v250h772v-250l-503 -637h538v-250h-864z" />
    <glyph glyph-name="braceleft" unicode="{" horiz-adv-x="696" 
d="M-6 477v203q25 0 52.5 4t64 15.5t59.5 39t23 66.5v442q0 69 30 126.5t74.5 89.5t88.5 49.5t79 17.5h184v-184h-92q-84 0 -84 -134v-434q-1 -56 -25.5 -96t-65.5 -60t-80.5 -29t-84.5 -11v-7q33 -2 55.5 -4.5t56 -10t55.5 -22t44 -37t33.5 -58.5t11.5 -83v-434
q0 -133 84 -133h92v-184h-184q-35 0 -79 17t-88.5 49.5t-74.5 89.5t-30 126v443q0 45 -23 76t-59 44t-64 18t-53 5z" />
    <glyph glyph-name="bar" unicode="|" 
d="M477 1536h273v-2048h-273v2048z" />
    <glyph glyph-name="braceright" unicode="}" horiz-adv-x="696" 
d="M702 680v-203q-25 0 -52.5 -5t-63.5 -18t-59 -44t-23 -76v-443q0 -69 -30 -126t-74.5 -89.5t-89 -49.5t-79.5 -17h-184v184h92q84 0 84 133v434q0 47 11.5 83t33.5 58.5t44 37t55.5 22t56 10t55.5 4.5v7q-45 2 -84.5 11t-80.5 29t-65.5 60t-25.5 96v434q0 134 -84 134
h-92v184h184q27 0 61.5 -10t72 -33t68.5 -55t51 -80.5t20 -104.5v-442q0 -39 23 -66.5t59 -39t63.5 -15.5t52.5 -4z" />
    <glyph glyph-name="asciitilde" unicode="~" 
d="M1018 711l74 -201q-34 -45 -53 -67.5t-53 -53.5t-72 -45t-83 -14q-85 0 -208 67q-128 72 -236 72q-61 0 -101 -38t-75 -103l-74 196q45 82 106 132.5t154 50.5q81 0 228 -66q14 -6 44.5 -20t47.5 -21t40.5 -16t42 -13t34.5 -4q24 0 47 9.5t38 19.5t37 35t30.5 36.5
t31.5 43.5z" />
    <glyph glyph-name="sterling" unicode="&#xa3;" horiz-adv-x="1146" 
d="M78 0v258h284q39 72 39 148q0 52 -20.5 100t-40.5 72t-55 59h-289v258h115q-33 78 -33 164q0 91 37 179t100.5 156t156.5 110t197 42q91 0 171.5 -32t135.5 -81.5t96 -108.5t60 -114t19 -98h-277q-18 85 -76.5 130.5t-126.5 45.5q-72 0 -124 -38.5t-74.5 -92.5
t-22.5 -113q0 -85 58 -149h426v-258h-224q26 -54 37 -80t19 -68t8 -96q0 -72 -23 -135h23q56 0 98 21t64 54t32.5 65.5t10.5 62.5t-21 102h272q21 -41 21 -104q0 -54 -14.5 -112.5t-51 -121.5t-90 -112t-141 -81t-195.5 -32h-581z" />
    <glyph glyph-name="currency" unicode="&#xa4;" horiz-adv-x="1146" 
d="M55 283l142 143q-64 106 -64 236q0 131 64 235l-142 141l142 144l141 -144q106 64 235 64q134 0 236 -64l143 144l142 -144l-144 -141q64 -102 64 -235q0 -135 -64 -234l144 -145l-142 -142l-143 146q-105 -66 -236 -66q-129 0 -235 64l-141 -144zM385 662
q0 -80 54.5 -135.5t133.5 -55.5t134 55.5t55 135.5t-55 135t-134 55t-133.5 -55t-54.5 -135z" />
    <glyph glyph-name="brokenbar" unicode="&#xa6;" 
d="M477 1382h273v-716h-273v716zM477 358h273v-716h-273v716z" />
    <glyph glyph-name="section" unicode="&#xa7;" horiz-adv-x="1146" 
d="M1016 1161h-256q-25 135 -168 135q-84 0 -120 -35.5t-36 -78.5q0 -72 129 -129l336 -172q56 -29 95.5 -69.5t57 -82t24.5 -73.5t7 -60q0 -69 -40.5 -147t-126.5 -142q102 -102 102 -246q0 -172 -126 -278.5t-314 -106.5q-193 0 -323.5 117.5t-137.5 317.5h256v-15
q4 -60 38 -100t77.5 -55t91.5 -15q77 0 129.5 37t52.5 96q0 27 -10 48t-34 40t-43.5 30t-60.5 32l-340 180q-108 56 -163.5 139.5t-55.5 182.5q0 52 15.5 98.5t33 75t49.5 59.5t45 40t40 28q-18 30 -29 51.5t-21 60t-10 80.5q0 87 36 155t96 107.5t130.5 59.5t147.5 20
q79 0 144.5 -18.5t107.5 -45t75 -67.5t49.5 -73t29 -76t15 -61.5t5.5 -43.5zM711 700l-316 160q-27 -18 -54.5 -56.5t-27.5 -76.5q0 -70 117 -127l318 -162q81 60 81 133q0 24 -9 43t-30 35.5t-35 25.5t-44 25z" />
    <glyph glyph-name="dieresis" unicode="&#xa8;" horiz-adv-x="1024" 
d="M160 1303v272h274v-272h-274zM592 1303v272h272v-272h-272z" />
    <glyph glyph-name="copyright" unicode="&#xa9;" horiz-adv-x="1515" 
d="M1163 915h-184q-30 89 -81.5 123.5t-127.5 34.5q-116 0 -186 -86.5t-70 -226.5q0 -152 69.5 -233t186.5 -81q79 0 130.5 34.5t78.5 123.5h184q-14 -128 -124 -219.5t-269 -91.5q-198 0 -319 132t-121 335t121 335t319 132q159 0 269 -92t124 -220zM760 1540
q160 0 304.5 -62.5t248.5 -167.5t165.5 -249.5t61.5 -302.5q0 -160 -62.5 -305t-167.5 -249.5t-249 -166.5t-301 -62q-215 0 -396 106t-285 286t-104 391q0 157 61.5 301.5t165.5 250t250 168t308 62.5zM758 1364q-166 0 -304 -82.5t-216 -221.5t-78 -302q0 -165 79 -304
t217 -220.5t302 -81.5q163 0 301 81t217.5 220.5t79.5 304.5q0 163 -78 302t-216 221.5t-304 82.5z" />
    <glyph glyph-name="guillemotleft" unicode="&#xab;" horiz-adv-x="942" 
d="M412 221l-287 268v207l287 265v-252l-140 -117l140 -119v-252zM819 221l-287 268v207l287 265v-252l-139 -117l139 -119v-252z" />
    <glyph glyph-name="logicalnot" unicode="&#xac;" 
d="M885 221v404h-787v245h1032v-649h-245z" />
    <glyph glyph-name="registered" unicode="&#xae;" horiz-adv-x="1515" 
d="M424 1198h377q20 0 35.5 -0.5t50.5 -5.5t61.5 -13.5t60 -26.5t55.5 -43t37 -65t15 -90q0 -80 -40 -138t-126 -79v-4q86 -25 116.5 -76.5t33.5 -146.5q6 -122 10 -151.5t18 -55.5h-182q-13 21 -18 52.5t-8 113.5q-5 107 -36 145.5t-124 47.5h-158v-359h-178v895zM602 1053
v-248h160q22 0 35 1t37 4.5t38.5 12.5t30.5 24t23.5 41t7.5 60q-7 64 -45.5 84.5t-106.5 20.5h-180zM760 1540q160 0 304.5 -62.5t248.5 -167.5t165.5 -249.5t61.5 -302.5q0 -160 -62.5 -305t-167.5 -249.5t-249 -166.5t-301 -62q-215 0 -396 106t-285 286t-104 391
q0 157 61.5 301.5t165.5 250t250 168t308 62.5zM758 1364q-166 0 -304 -82.5t-216 -221.5t-78 -302q0 -165 79 -304t217 -220.5t302 -81.5q163 0 301 81t217.5 220.5t79.5 304.5q0 163 -78 302t-216 221.5t-304 82.5z" />
    <glyph glyph-name="degree" unicode="&#xb0;" horiz-adv-x="819" 
d="M410 1014q59 0 102 45t43 106q0 60 -43 106t-102 46t-102.5 -46.5t-43.5 -105.5q0 -60 43 -105.5t103 -45.5zM410 872q-123 0 -208 85t-85 208t85 208t208 85t207.5 -85t84.5 -208t-84.5 -208t-207.5 -85z" />
    <glyph glyph-name="plusminus" unicode="&#xb1;" 
d="M492 819v320h245v-320h393v-246h-393v-307h-245v307h-394v246h394zM98 -127v246h1032v-246h-1032z" />
    <glyph glyph-name="acute" unicode="&#xb4;" horiz-adv-x="860" 
d="M291 1278l-109 188l455 277l117 -209z" />
    <glyph glyph-name="mu" unicode="&#xb5;" horiz-adv-x="1179" 
d="M78 -383v1520h272v-541q0 -114 7.5 -174t35.5 -107q66 -102 195 -102q66 0 115 28t76 77t39.5 107t12.5 128v584h273v-1137h-273v127h-4q-8 -24 -24 -48.5t-44 -52.5t-74 -45.5t-103 -17.5q-82 0 -140 28.5t-88 67.5h-4v-442h-272z" />
    <glyph glyph-name="mu" unicode="&#x3bc;" horiz-adv-x="1179" 
d="M78 -383v1520h272v-541q0 -114 7.5 -174t35.5 -107q66 -102 195 -102q66 0 115 28t76 77t39.5 107t12.5 128v584h273v-1137h-273v127h-4q-8 -24 -24 -48.5t-44 -52.5t-74 -45.5t-103 -17.5q-82 0 -140 28.5t-88 67.5h-4v-442h-272z" />
    <glyph glyph-name="paragraph" unicode="&#xb6;" 
d="M420 -211v938h-29q-55 0 -108.5 12t-108 41t-95.5 72t-67 110.5t-26 151.5q0 402 520 402h737v-211h-162v-1516h-231v1516h-199v-1516h-231z" />
    <glyph glyph-name="periodcentered" unicode="&#xb7;" horiz-adv-x="573" 
d="M150 383v272h272v-272h-272z" />
    <glyph glyph-name="periodcentered" unicode="&#x2219;" horiz-adv-x="573" 
d="M150 383v272h272v-272h-272z" />
    <glyph glyph-name="cedilla" unicode="&#xb8;" horiz-adv-x="696" 
d="M315 12l103 -14l-49 -111q28 4 51 4q78 0 134 -54.5t56 -149.5t-58.5 -148t-145.5 -53q-50 0 -91 19t-65 48t-36.5 58t-12.5 53h108q6 -34 33 -55t64 -21q41 0 67.5 28t26.5 71q0 42 -28 72t-69 30q-64 0 -88 -45l-100 39z" />
    <glyph glyph-name="guillemotright" unicode="&#xbb;" horiz-adv-x="942" 
d="M125 221v252l139 119l-139 117v252l287 -265v-207zM532 221v252l140 119l-140 117v252l287 -265v-207z" />
    <glyph glyph-name="Aacute" unicode="&#xc1;" horiz-adv-x="1515" 
d="M14 0l631 1516h219l635 -1516h-309l-162 391h-543l-161 -391h-310zM752 1120l-172 -465h348l-172 465h-4zM618 1626l-108 189l455 276l116 -209z" />
    <glyph glyph-name="Acircumflex" unicode="&#xc2;" horiz-adv-x="1515" 
d="M14 0l631 1516h219l635 -1516h-309l-162 391h-543l-161 -391h-310zM752 1120l-172 -465h348l-172 465h-4zM350 1651l303 282h215l299 -282h-297l-108 131l-115 -131h-297z" />
    <glyph glyph-name="Adieresis" unicode="&#xc4;" horiz-adv-x="1515" 
d="M14 0l631 1516h219l635 -1516h-309l-162 391h-543l-161 -391h-310zM752 1120l-172 -465h348l-172 465h-4zM406 1651v272h274v-272h-274zM838 1651v272h272v-272h-272z" />
    <glyph glyph-name="Ccedilla" unicode="&#xc7;" horiz-adv-x="1597" 
d="M631 -336h108q6 -34 33 -55t64 -21q41 0 67.5 28t26.5 71q0 42 -27.5 72t-68.5 30q-65 0 -89 -45l-100 39l86 199q-186 31 -337.5 143.5t-237.5 280.5t-86 358q0 154 61.5 298t165.5 250t250 170t307 64q98 0 198.5 -26.5t198 -79.5t182 -145t136.5 -212h-320
q-175 201 -405 201q-92 0 -181 -40t-158.5 -108t-112 -167t-42.5 -209q0 -105 41.5 -202.5t110 -169t161 -114.5t191.5 -43q58 0 112 14t89.5 31t75.5 48.5t57 48.5t47 49h326q-88 -206 -283.5 -329.5t-417.5 -123.5q-16 0 -24 2l-37 -84q28 4 51 4q78 0 134 -54.5
t56 -149.5t-58.5 -148t-145.5 -53q-50 0 -91 19t-65 48t-36.5 58t-12.5 53z" />
    <glyph glyph-name="Eacute" unicode="&#xc9;" horiz-adv-x="1064" 
d="M125 0v1516h815v-263h-534v-370h512v-262h-512v-359h534v-262h-815zM393 1626l-108 189l454 276l117 -209z" />
    <glyph glyph-name="Edieresis" unicode="&#xcb;" horiz-adv-x="1064" 
d="M125 0v1516h815v-263h-534v-370h512v-262h-512v-359h534v-262h-815zM180 1651v272h275v-272h-275zM612 1651v272h273v-272h-273z" />
    <glyph glyph-name="Iacute" unicode="&#xcd;" horiz-adv-x="573" 
d="M147 0v1516h281v-1516h-281zM199 1626l-109 189l455 276l117 -209z" />
    <glyph glyph-name="Icircumflex" unicode="&#xce;" horiz-adv-x="573" 
d="M147 0v1516h281v-1516h-281zM-121 1651l303 282h215l299 -282h-297l-108 131l-115 -131h-297z" />
    <glyph glyph-name="Oacute" unicode="&#xd3;" horiz-adv-x="1720" 
d="M68 754q0 220 108 402.5t289.5 286t394.5 103.5q159 0 305 -61t253 -166t171 -252.5t64 -312.5q0 -160 -63 -305.5t-169.5 -250.5t-253 -167t-307.5 -62q-215 0 -397 105t-288.5 286t-106.5 394zM348 756q0 -139 67 -259.5t185.5 -193t259.5 -72.5t259.5 72.5t185.5 193
t67 259.5q0 143 -68 264.5t-186 192.5t-258 71t-258 -71t-186 -192.5t-68 -264.5zM721 1626l-109 189l455 276l117 -209z" />
    <glyph glyph-name="Ocircumflex" unicode="&#xd4;" horiz-adv-x="1720" 
d="M68 754q0 220 108 402.5t289.5 286t394.5 103.5q159 0 305 -61t253 -166t171 -252.5t64 -312.5q0 -160 -63 -305.5t-169.5 -250.5t-253 -167t-307.5 -62q-215 0 -397 105t-288.5 286t-106.5 394zM348 756q0 -139 67 -259.5t185.5 -193t259.5 -72.5t259.5 72.5t185.5 193
t67 259.5q0 143 -68 264.5t-186 192.5t-258 71t-258 -71t-186 -192.5t-68 -264.5zM453 1651l303 282h215l299 -282h-297l-109 131l-114 -131h-297z" />
    <glyph glyph-name="Otilde" unicode="&#xd5;" horiz-adv-x="1720" 
d="M68 754q0 220 108 402.5t289.5 286t394.5 103.5q159 0 305 -61t253 -166t171 -252.5t64 -312.5q0 -160 -63 -305.5t-169.5 -250.5t-253 -167t-307.5 -62q-215 0 -397 105t-288.5 286t-106.5 394zM348 756q0 -139 67 -259.5t185.5 -193t259.5 -72.5t259.5 72.5t185.5 193
t67 259.5q0 143 -68 264.5t-186 192.5t-258 71t-258 -71t-186 -192.5t-68 -264.5zM569 1665l-110 166q117 88 237 88q17 0 32 -1t35.5 -5.5t28.5 -6.5t36.5 -10t35.5 -10q85 -26 133 -26q85 0 156 47l111 -160q-56 -45 -110.5 -70.5t-123.5 -25.5q-25 0 -51.5 4.5t-46.5 9.5
t-94 25q-54 16 -105 16q-79 0 -164 -41z" />
    <glyph glyph-name="Odieresis" unicode="&#xd6;" horiz-adv-x="1720" 
d="M68 754q0 220 108 402.5t289.5 286t394.5 103.5q159 0 305 -61t253 -166t171 -252.5t64 -312.5q0 -160 -63 -305.5t-169.5 -250.5t-253 -167t-307.5 -62q-215 0 -397 105t-288.5 286t-106.5 394zM348 756q0 -139 67 -259.5t185.5 -193t259.5 -72.5t259.5 72.5t185.5 193
t67 259.5q0 143 -68 264.5t-186 192.5t-258 71t-258 -71t-186 -192.5t-68 -264.5zM508 1651v272h274v-272h-274zM940 1651v272h272v-272h-272z" />
    <glyph glyph-name="multiply" unicode="&#xd7;" 
d="M446 518l-325 326l168 168l325 -326l326 326l168 -168l-328 -326l328 -325l-168 -168l-326 327l-325 -327l-168 168z" />
    <glyph glyph-name="Uacute" unicode="&#xda;" horiz-adv-x="1310" 
d="M113 1516h282l-2 -963q0 -322 262 -322q263 0 263 322v963h280v-963q0 -236 -88 -358q-71 -100 -188.5 -163t-264.5 -63q-82 0 -157 21t-131 55.5t-95 69t-67 71.5q-94 127 -94 367v963zM588 1626l-109 189l455 276l117 -209z" />
    <glyph glyph-name="Udieresis" unicode="&#xdc;" horiz-adv-x="1310" 
d="M113 1516h282l-2 -963q0 -322 262 -322q263 0 263 322v963h280v-963q0 -236 -88 -358q-71 -100 -188.5 -163t-264.5 -63q-82 0 -157 21t-131 55.5t-95 69t-67 71.5q-94 127 -94 367v963zM303 1651v272h275v-272h-275zM735 1651v272h273v-272h-273z" />
    <glyph glyph-name="Yacute" unicode="&#xdd;" horiz-adv-x="1269" 
d="M494 0v559l-498 957h307l330 -697l332 697h309l-500 -957v-559h-280zM567 1626l-108 189l454 276l117 -209z" />
    <glyph glyph-name="germandbls" unicode="&#xdf;" 
d="M104 0v999q0 101 20 184t51.5 138.5t75 98t85.5 65.5t88.5 37.5t79 19t61.5 4.5q86 0 166 -31.5t141 -87t97.5 -137t36.5 -174.5q0 -88 -34.5 -163.5t-101.5 -114.5q85 -21 149 -62t97 -84t53 -95.5t24.5 -88t4.5 -70.5q0 -134 -50.5 -239.5t-155.5 -170.5t-251 -65
q-29 0 -49.5 1t-60 6t-71.5 17t-70 31.5t-71.5 53.5t-60.5 78h-4v-150h-250zM377 1030v-643h176q12 -75 68 -125q52 -49 120 -49q74 0 129.5 55.5t55.5 147.5q-2 52 -19.5 91.5t-49 64t-66.5 40.5t-84 23t-88 9.5t-91 2.5v242q102 0 153.5 61t51.5 154t-50.5 142.5
t-123.5 49.5q-182 0 -182 -266z" />
    <glyph glyph-name="aacute" unicode="&#xe1;" horiz-adv-x="1351" 
d="M1255 1137v-1137h-249v141q-65 -77 -178 -127.5t-220 -50.5q-110 0 -210 43t-176.5 120t-121.5 194t-45 255q0 170 76.5 308.5t207 215.5t286.5 77q65 0 126.5 -17.5t103.5 -42t76 -52.5t50 -46t20 -25h5v144h249zM997 571q0 85 -28.5 154.5t-76.5 112t-106 65.5t-120 23
q-80 0 -146 -32.5t-107 -85.5t-63 -116.5t-22 -128.5q0 -146 96.5 -248t241.5 -102q142 0 236.5 100.5t94.5 257.5zM537 1278l-109 188l455 277l116 -209z" />
    <glyph glyph-name="acircumflex" unicode="&#xe2;" horiz-adv-x="1351" 
d="M1255 1137v-1137h-249v141q-65 -77 -178 -127.5t-220 -50.5q-110 0 -210 43t-176.5 120t-121.5 194t-45 255q0 170 76.5 308.5t207 215.5t286.5 77q65 0 126.5 -17.5t103.5 -42t76 -52.5t50 -46t20 -25h5v144h249zM997 571q0 85 -28.5 154.5t-76.5 112t-106 65.5t-120 23
q-80 0 -146 -32.5t-107 -85.5t-63 -116.5t-22 -128.5q0 -146 96.5 -248t241.5 -102q142 0 236.5 100.5t94.5 257.5zM268 1303l303 282h215l299 -282h-297l-108 131l-115 -131h-297z" />
    <glyph glyph-name="adieresis" unicode="&#xe4;" horiz-adv-x="1351" 
d="M1255 1137v-1137h-249v141q-65 -77 -178 -127.5t-220 -50.5q-110 0 -210 43t-176.5 120t-121.5 194t-45 255q0 170 76.5 308.5t207 215.5t286.5 77q65 0 126.5 -17.5t103.5 -42t76 -52.5t50 -46t20 -25h5v144h249zM997 571q0 85 -28.5 154.5t-76.5 112t-106 65.5t-120 23
q-80 0 -146 -32.5t-107 -85.5t-63 -116.5t-22 -128.5q0 -146 96.5 -248t241.5 -102q142 0 236.5 100.5t94.5 257.5zM324 1303v272h274v-272h-274zM756 1303v272h272v-272h-272z" />
    <glyph glyph-name="ccedilla" unicode="&#xe7;" horiz-adv-x="1310" 
d="M471 -336h109q6 -34 32.5 -55t63.5 -21q41 0 67.5 28t26.5 71q0 42 -27.5 72t-68.5 30q-64 0 -88 -45l-101 39l84 192q-97 19 -184.5 68.5t-157 124.5t-110.5 180t-41 225q0 127 50 240.5t133 192t193 124.5t226 46q49 0 103.5 -9t125.5 -37t132 -72t119 -121t91 -177
h-307q-14 25 -24 40t-34.5 42t-50 43t-66.5 28.5t-89 12.5q-85 0 -159 -39.5t-122.5 -122.5t-48.5 -195q0 -150 95.5 -253t246.5 -103q153 0 252 158h307q-69 -191 -219.5 -299.5t-349.5 -108.5h-6l-35 -76q28 4 51 4q78 0 134.5 -54.5t56.5 -149.5q0 -94 -59 -147.5
t-146 -53.5q-50 0 -91 19t-65 48t-36.5 58t-12.5 53z" />
    <glyph glyph-name="eacute" unicode="&#xe9;" horiz-adv-x="1310" 
d="M1233 446h-883q5 -30 27.5 -68t60 -76t97.5 -63.5t129 -25.5q183 0 262 145h286q-52 -162 -203.5 -278.5t-344.5 -116.5q-169 0 -307.5 81t-216 219t-77.5 302q0 162 73.5 300.5t212.5 224.5t313 86q108 0 203.5 -34t164.5 -92t119 -133.5t75 -160.5t25 -172
q0 -64 -16 -138zM342 666h629q-22 130 -106.5 195t-200.5 65q-36 0 -71.5 -6.5t-75 -24.5t-72 -46t-60.5 -75t-43 -108zM516 1278l-108 188l454 277l117 -209z" />
    <glyph glyph-name="edieresis" unicode="&#xeb;" horiz-adv-x="1310" 
d="M1233 446h-883q5 -30 27.5 -68t60 -76t97.5 -63.5t129 -25.5q183 0 262 145h286q-52 -162 -203.5 -278.5t-344.5 -116.5q-169 0 -307.5 81t-216 219t-77.5 302q0 162 73.5 300.5t212.5 224.5t313 86q108 0 203.5 -34t164.5 -92t119 -133.5t75 -160.5t25 -172
q0 -64 -16 -138zM342 666h629q-22 130 -106.5 195t-200.5 65q-36 0 -71.5 -6.5t-75 -24.5t-72 -46t-60.5 -75t-43 -108zM303 1303v272h275v-272h-275zM735 1303v272h273v-272h-273z" />
    <glyph glyph-name="iacute" unicode="&#xed;" horiz-adv-x="491" 
d="M109 0v1137h272v-1137h-272zM158 1278l-109 188l455 277l117 -209z" />
    <glyph glyph-name="icircumflex" unicode="&#xee;" horiz-adv-x="491" 
d="M109 0v1137h272v-1137h-272zM-162 1303l303 282h215l299 -282h-297l-108 131l-115 -131h-297z" />
    <glyph glyph-name="oacute" unicode="&#xf3;" horiz-adv-x="1310" 
d="M657 -37q-124 0 -237 49t-193.5 130.5t-128 193t-47.5 231.5q0 126 49 239.5t131.5 194t193.5 128t232 47.5q119 0 229.5 -46t193 -125.5t131.5 -193t49 -240.5q0 -136 -50 -252t-133.5 -193t-192.5 -120t-227 -43zM657 213q144 0 237 105.5t93 246.5q0 152 -99.5 256.5
t-230.5 104.5q-55 0 -112 -23.5t-107 -66t-82 -113.5t-32 -156q0 -156 99.5 -255t233.5 -99zM516 1278l-108 188l454 277l117 -209z" />
    <glyph glyph-name="ocircumflex" unicode="&#xf4;" horiz-adv-x="1310" 
d="M657 -37q-124 0 -237 49t-193.5 130.5t-128 193t-47.5 231.5q0 126 49 239.5t131.5 194t193.5 128t232 47.5q119 0 229.5 -46t193 -125.5t131.5 -193t49 -240.5q0 -136 -50 -252t-133.5 -193t-192.5 -120t-227 -43zM657 213q144 0 237 105.5t93 246.5q0 152 -99.5 256.5
t-230.5 104.5q-55 0 -112 -23.5t-107 -66t-82 -113.5t-32 -156q0 -156 99.5 -255t233.5 -99zM248 1303l303 282h215l299 -282h-297l-109 131l-114 -131h-297z" />
    <glyph glyph-name="otilde" unicode="&#xf5;" horiz-adv-x="1310" 
d="M657 -37q-124 0 -237 49t-193.5 130.5t-128 193t-47.5 231.5q0 126 49 239.5t131.5 194t193.5 128t232 47.5q119 0 229.5 -46t193 -125.5t131.5 -193t49 -240.5q0 -136 -50 -252t-133.5 -193t-192.5 -120t-227 -43zM657 213q144 0 237 105.5t93 246.5q0 152 -99.5 256.5
t-230.5 104.5q-55 0 -112 -23.5t-107 -66t-82 -113.5t-32 -156q0 -156 99.5 -255t233.5 -99zM365 1317l-111 166q117 88 238 88q17 0 32 -1.5t34.5 -5.5t28.5 -6t36 -10t36 -10q89 -27 134 -27q82 0 155 48l111 -160q-56 -45 -110.5 -70.5t-123.5 -25.5q-36 0 -67.5 6.5
t-124.5 31.5q-57 17 -105 17q-78 0 -163 -41z" />
    <glyph glyph-name="odieresis" unicode="&#xf6;" horiz-adv-x="1310" 
d="M657 -37q-124 0 -237 49t-193.5 130.5t-128 193t-47.5 231.5q0 126 49 239.5t131.5 194t193.5 128t232 47.5q119 0 229.5 -46t193 -125.5t131.5 -193t49 -240.5q0 -136 -50 -252t-133.5 -193t-192.5 -120t-227 -43zM657 213q144 0 237 105.5t93 246.5q0 152 -99.5 256.5
t-230.5 104.5q-55 0 -112 -23.5t-107 -66t-82 -113.5t-32 -156q0 -156 99.5 -255t233.5 -99zM303 1303v272h275v-272h-275zM735 1303v272h273v-272h-273z" />
    <glyph glyph-name="divide" unicode="&#xf7;" 
d="M1130 395h-1032v246h1032v-246zM492 831v246h245v-246h-245zM492 -41v246h245v-246h-245z" />
    <glyph glyph-name="uacute" unicode="&#xfa;" 
d="M842 1137h272v-1137h-250v115h-4q-22 -30 -41.5 -50.5t-55 -47t-85.5 -40.5t-111 -14q-139 0 -233 53t-148 127q-29 42 -48 96.5t-26 117t-8.5 98t-1.5 88.5v594h273v-580v-36.5t2.5 -43.5t6 -50.5t12 -50.5t20 -50.5t29.5 -43.5t41 -37t55.5 -23t70.5 -9q62 0 108 27.5
t72 76.5t38 108t12 130v582zM547 1278l-109 188l455 277l117 -209z" />
    <glyph glyph-name="udieresis" unicode="&#xfc;" 
d="M842 1137h272v-1137h-250v115h-4q-22 -30 -41.5 -50.5t-55 -47t-85.5 -40.5t-111 -14q-139 0 -233 53t-148 127q-29 42 -48 96.5t-26 117t-8.5 98t-1.5 88.5v594h273v-580v-36.5t2.5 -43.5t6 -50.5t12 -50.5t20 -50.5t29.5 -43.5t41 -37t55.5 -23t70.5 -9q62 0 108 27.5
t72 76.5t38 108t12 130v582zM262 1303v272h275v-272h-275zM694 1303v272h273v-272h-273z" />
    <glyph glyph-name="yacute" unicode="&#xfd;" horiz-adv-x="1187" 
d="M223 -379l209 485l-416 1031h312l258 -729l274 729h309l-653 -1516h-293zM526 1278l-108 188l454 277l117 -209z" />
    <glyph glyph-name="Amacron" unicode="&#x100;" horiz-adv-x="1515" 
d="M14 0l631 1516h219l635 -1516h-309l-162 391h-543l-161 -391h-310zM752 1120l-172 -465h348l-172 465h-4zM475 1706v227h567v-227h-567z" />
    <glyph glyph-name="amacron" unicode="&#x101;" horiz-adv-x="1351" 
d="M1255 1137v-1137h-249v141q-65 -77 -178 -127.5t-220 -50.5q-110 0 -210 43t-176.5 120t-121.5 194t-45 255q0 170 76.5 308.5t207 215.5t286.5 77q65 0 126.5 -17.5t103.5 -42t76 -52.5t50 -46t20 -25h5v144h249zM997 571q0 85 -28.5 154.5t-76.5 112t-106 65.5t-120 23
q-80 0 -146 -32.5t-107 -85.5t-63 -116.5t-22 -128.5q0 -146 96.5 -248t241.5 -102q142 0 236.5 100.5t94.5 257.5zM393 1327v227h568v-227h-568z" />
    <glyph glyph-name="Abreve" unicode="&#x102;" horiz-adv-x="1515" 
d="M14 0l631 1516h219l635 -1516h-309l-162 391h-543l-161 -391h-310zM752 1120l-172 -465h348l-172 465h-4zM352 1956h221q51 -82 185 -82q135 0 186 82h221q-20 -133 -125.5 -207t-281.5 -74q-174 0 -280 74t-126 207z" />
    <glyph glyph-name="abreve" unicode="&#x103;" horiz-adv-x="1351" 
d="M1255 1137v-1137h-249v141q-65 -77 -178 -127.5t-220 -50.5q-110 0 -210 43t-176.5 120t-121.5 194t-45 255q0 170 76.5 308.5t207 215.5t286.5 77q65 0 126.5 -17.5t103.5 -42t76 -52.5t50 -46t20 -25h5v144h249zM997 571q0 85 -28.5 154.5t-76.5 112t-106 65.5t-120 23
q-80 0 -146 -32.5t-107 -85.5t-63 -116.5t-22 -128.5q0 -146 96.5 -248t241.5 -102q142 0 236.5 100.5t94.5 257.5zM270 1577h222q51 -82 184 -82q135 0 186 82h221q-20 -133 -125.5 -207t-281.5 -74q-174 0 -280 74t-126 207z" />
    <glyph glyph-name="Aogonek" unicode="&#x104;" horiz-adv-x="1515" 
d="M752 1120l-172 -465h348l-172 465h-4zM485 391l-161 -391h-310l631 1516h219l635 -1516h-153q-58 -43 -82.5 -73t-24.5 -70q0 -43 31.5 -68t72.5 -25q28 0 82 23v-160q-71 -26 -139 -26q-67 0 -116 20.5t-73.5 53t-35 63.5t-10.5 61q0 116 139 201l-162 391h-543z" />
    <glyph glyph-name="aogonek" unicode="&#x105;" horiz-adv-x="1351" 
d="M997 571q0 85 -28.5 154.5t-76.5 112t-106 65.5t-120 23q-80 0 -146 -32.5t-107 -85.5t-63 -116.5t-22 -128.5q0 -146 96.5 -248t241.5 -102q142 0 236.5 100.5t94.5 257.5zM1255 1137v-1137h-96q-57 -43 -81.5 -73t-24.5 -70q0 -43 31.5 -68t72.5 -25q28 0 82 23v-160
q-72 -26 -139 -26t-116.5 20.5t-73.5 53t-35 63.5t-11 61q0 117 142 201v141q-65 -77 -178 -127.5t-220 -50.5q-110 0 -210 43t-176.5 120t-121.5 194t-45 255q0 170 76.5 308.5t207 215.5t286.5 77q65 0 126.5 -17.5t103.5 -42t76 -52.5t50 -46t20 -25h5v144h249z" />
    <glyph glyph-name="Cacute" unicode="&#x106;" horiz-adv-x="1597" 
d="M1235 422h326q-88 -206 -283.5 -329.5t-417.5 -123.5q-161 0 -307.5 64.5t-252 172t-168 254t-62.5 304.5q0 154 61.5 298t165.5 250t250 170t307 64q98 0 198.5 -26.5t198 -79.5t182 -145t136.5 -212h-320q-175 201 -405 201q-92 0 -181 -40t-158.5 -108t-112 -167
t-42.5 -209q0 -105 41.5 -202.5t110 -169t161 -114.5t191.5 -43q58 0 112 14t89.5 31t75.5 48.5t57 48.5t47 49zM721 1626l-109 189l455 276l117 -209z" />
    <glyph glyph-name="cacute" unicode="&#x107;" horiz-adv-x="1310" 
d="M942 371h307q-69 -191 -219.5 -299.5t-349.5 -108.5q-88 0 -174.5 27t-164 80t-137 125t-94 170t-34.5 208q0 127 50 240.5t133 192t193 124.5t226 46q49 0 103.5 -9t125.5 -37t132 -72t119 -121t91 -177h-307q-14 25 -24 40t-34.5 42t-50 43t-66.5 28.5t-89 12.5
q-85 0 -159 -39.5t-122.5 -122.5t-48.5 -195q0 -150 95.5 -253t246.5 -103q153 0 252 158zM516 1278l-108 188l454 277l117 -209z" />
    <glyph glyph-name="Ccaron" unicode="&#x10c;" horiz-adv-x="1597" 
d="M1235 422h326q-88 -206 -283.5 -329.5t-417.5 -123.5q-161 0 -307.5 64.5t-252 172t-168 254t-62.5 304.5q0 154 61.5 298t165.5 250t250 170t307 64q98 0 198.5 -26.5t198 -79.5t182 -145t136.5 -212h-320q-175 201 -405 201q-92 0 -181 -40t-158.5 -108t-112 -167
t-42.5 -209q0 -105 41.5 -202.5t110 -169t161 -114.5t191.5 -43q58 0 112 14t89.5 31t75.5 48.5t57 48.5t47 49zM453 1964h297l114 -131l109 131h297l-299 -283h-215z" />
    <glyph glyph-name="ccaron" unicode="&#x10d;" horiz-adv-x="1310" 
d="M942 371h307q-69 -191 -219.5 -299.5t-349.5 -108.5q-88 0 -174.5 27t-164 80t-137 125t-94 170t-34.5 208q0 127 50 240.5t133 192t193 124.5t226 46q49 0 103.5 -9t125.5 -37t132 -72t119 -121t91 -177h-307q-14 25 -24 40t-34.5 42t-50 43t-66.5 28.5t-89 12.5
q-85 0 -159 -39.5t-122.5 -122.5t-48.5 -195q0 -150 95.5 -253t246.5 -103q153 0 252 158zM248 1585h297l114 -131l109 131h297l-299 -282h-215z" />
    <glyph glyph-name="Dcaron" unicode="&#x10e;" horiz-adv-x="1433" 
d="M129 0v1516h344q418 0 623 -177q111 -95 180.5 -253t69.5 -332q0 -205 -99 -385.5t-264 -270.5q-175 -98 -504 -98h-350zM410 1253v-991h59q123 0 204 14.5t165 59.5q108 59 167.5 174.5t59.5 243.5q0 109 -43.5 208t-118.5 164q-82 74 -187 100.5t-253 26.5h-53z
M207 1964h297l114 -131l109 131h297l-299 -283h-215z" />
    <glyph glyph-name="dcaron" unicode="&#x10f;" horiz-adv-x="1638" 
d="M1266 1516v-1516h-250v139h-4q-45 -72 -137.5 -124t-225.5 -52q-109 0 -212.5 43.5t-185 120t-131.5 192t-50 248.5q0 111 34 210t91.5 170.5t132 124t157 78.5t164.5 26q117 0 198 -36t146 -104v480h273zM342 578q0 -155 100 -260t236 -105q74 0 138.5 31.5t107 82
t66.5 114t24 128.5q0 143 -97 250t-239 107q-73 0 -137.5 -32t-107 -82.5t-67 -112t-24.5 -121.5zM1337 1157l166 359h193l-166 -359h-193z" />
    <glyph glyph-name="Dcroat" unicode="&#x110;" horiz-adv-x="1519" 
d="M199 637h-148v262h148v617h344q132 0 239.5 -16t180.5 -45t118 -55.5t84 -60.5q111 -95 180.5 -253t69.5 -332q0 -205 -98.5 -385.5t-263.5 -270.5q-175 -98 -504 -98h-350v637zM760 637h-281v-375h60q123 0 203.5 14.5t164.5 59.5q108 59 168 175t60 243
q0 109 -43.5 208t-118.5 164q-82 74 -187.5 100.5t-253.5 26.5h-53v-354h281v-262z" />
    <glyph glyph-name="dcroat" unicode="&#x111;" horiz-adv-x="1351" 
d="M342 578q0 -155 100 -260t236 -105q74 0 138.5 31.5t107 82t66.5 114t24 128.5q0 143 -97 250t-239 107q-73 0 -137.5 -32t-107 -82.5t-67 -112t-24.5 -121.5zM719 1221v198h274v97h273v-97h168v-198h-168v-1221h-250v139h-4q-45 -72 -137.5 -124t-225.5 -52
q-109 0 -212.5 43.5t-185 120t-131.5 192t-50 248.5q0 111 34 210t91.5 170.5t132 124t157 78.5t164.5 26q117 0 198 -36t146 -104v185h-274z" />
    <glyph glyph-name="Emacron" unicode="&#x112;" horiz-adv-x="1064" 
d="M125 0v1516h815v-263h-534v-370h512v-262h-512v-359h534v-262h-815zM250 1706v227h567v-227h-567z" />
    <glyph glyph-name="emacron" unicode="&#x113;" horiz-adv-x="1310" 
d="M1233 446h-883q5 -30 27.5 -68t60 -76t97.5 -63.5t129 -25.5q183 0 262 145h286q-52 -162 -203.5 -278.5t-344.5 -116.5q-169 0 -307.5 81t-216 219t-77.5 302q0 162 73.5 300.5t212.5 224.5t313 86q108 0 203.5 -34t164.5 -92t119 -133.5t75 -160.5t25 -172
q0 -64 -16 -138zM342 666h629q-22 130 -106.5 195t-200.5 65q-36 0 -71.5 -6.5t-75 -24.5t-72 -46t-60.5 -75t-43 -108zM373 1327v227h567v-227h-567z" />
    <glyph glyph-name="Edotaccent" unicode="&#x116;" horiz-adv-x="1064" 
d="M125 0v1516h815v-263h-534v-370h512v-262h-512v-359h534v-262h-815zM397 1681v273h273v-273h-273z" />
    <glyph glyph-name="edotaccent" unicode="&#x117;" horiz-adv-x="1310" 
d="M1233 446h-883q5 -30 27.5 -68t60 -76t97.5 -63.5t129 -25.5q183 0 262 145h286q-52 -162 -203.5 -278.5t-344.5 -116.5q-169 0 -307.5 81t-216 219t-77.5 302q0 162 73.5 300.5t212.5 224.5t313 86q108 0 203.5 -34t164.5 -92t119 -133.5t75 -160.5t25 -172
q0 -64 -16 -138zM342 666h629q-22 130 -106.5 195t-200.5 65q-36 0 -71.5 -6.5t-75 -24.5t-72 -46t-60.5 -75t-43 -108zM520 1303v272h273v-272h-273z" />
    <glyph glyph-name="Eogonek" unicode="&#x118;" horiz-adv-x="1064" 
d="M125 0v1516h815v-263h-534v-370h512v-262h-512v-359h534v-262h-80q-57 -43 -81.5 -73t-24.5 -70q0 -43 31.5 -68t72.5 -25q28 0 82 23v-160q-72 -26 -139 -26t-116.5 20.5t-73.5 53t-35 63.5t-11 61q0 118 146 201h-586z" />
    <glyph glyph-name="eogonek" unicode="&#x119;" horiz-adv-x="1310" 
d="M342 666h629q-22 130 -106.5 195t-200.5 65q-36 0 -71.5 -6.5t-75 -24.5t-72 -46t-60.5 -75t-43 -108zM1233 446h-883q5 -30 27.5 -68t60 -76t97.5 -63.5t129 -25.5q183 0 262 145h286q-36 -113 -126 -208t-212 -144q-64 -47 -89 -77t-25 -72q0 -43 31.5 -68t72.5 -25
q28 0 82 23v-160q-72 -26 -139 -26t-116.5 20.5t-73.5 53t-35 63.5t-11 61q0 90 91 164q-169 1 -307 82.5t-215 218.5t-77 301q0 162 73.5 300.5t212.5 224.5t313 86q108 0 203.5 -34t164.5 -92t119 -133.5t75 -160.5t25 -172q0 -64 -16 -138z" />
    <glyph glyph-name="Ecaron" unicode="&#x11a;" horiz-adv-x="1064" 
d="M125 0v1516h815v-263h-534v-370h512v-262h-512v-359h534v-262h-815zM125 1964h297l115 -131l108 131h297l-299 -283h-215z" />
    <glyph glyph-name="ecaron" unicode="&#x11b;" horiz-adv-x="1310" 
d="M1233 446h-883q5 -30 27.5 -68t60 -76t97.5 -63.5t129 -25.5q183 0 262 145h286q-52 -162 -203.5 -278.5t-344.5 -116.5q-169 0 -307.5 81t-216 219t-77.5 302q0 162 73.5 300.5t212.5 224.5t313 86q108 0 203.5 -34t164.5 -92t119 -133.5t75 -160.5t25 -172
q0 -64 -16 -138zM342 666h629q-22 130 -106.5 195t-200.5 65q-36 0 -71.5 -6.5t-75 -24.5t-72 -46t-60.5 -75t-43 -108zM268 1585h297l115 -131l108 131h297l-299 -282h-215z" />
    <glyph glyph-name="Gcommaaccent" unicode="&#x122;" horiz-adv-x="1720" 
d="M684 510v262h989v-33q0 -127 -42.5 -245.5t-118.5 -212.5t-176 -165t-220.5 -109t-245.5 -38q-161 0 -310 60t-260.5 163t-178 251t-66.5 315q0 163 66 310.5t176.5 251.5t258 165t306.5 61q110 0 214.5 -28.5t186.5 -76t150.5 -109.5t114 -128.5t69.5 -132.5h-335
q-58 87 -163 150t-243 63q-99 0 -185 -32t-146.5 -85.5t-103.5 -122t-64 -142t-21 -146.5q0 -71 20.5 -143.5t64.5 -141t105 -122t150.5 -86t193.5 -32.5q141 0 262.5 74t186.5 205h-635zM641 -469l166 358h192l-165 -358h-193z" />
    <glyph glyph-name="gcommaaccent" unicode="&#x123;" horiz-adv-x="1351" 
d="M1012 1137h264v-928q0 -113 -23.5 -209t-62 -163.5t-91.5 -121t-109 -86.5t-118 -54.5t-114.5 -29.5t-102.5 -8q-120 0 -229.5 40t-202 127t-139.5 210h311q106 -127 281 -127q60 0 118 21t108.5 62.5t83.5 111.5t38 159l-4 4q-132 -182 -373 -182q-104 0 -207 43.5
t-186.5 121t-135.5 196t-52 256.5q0 129 50 242.5t131.5 189.5t185.5 120t212 44q240 0 363 -179h4v140zM1004 580q0 61 -24 122.5t-66.5 111.5t-106.5 81t-137 31q-130 0 -231 -97t-101 -251q0 -110 51 -195.5t127.5 -127.5t161.5 -42q130 0 228 102t98 265zM539 1280
l166 358h192l-166 -358h-192z" />
    <glyph glyph-name="Imacron" unicode="&#x12a;" horiz-adv-x="573" 
d="M147 0v1516h281v-1516h-281zM4 1706v227h567v-227h-567z" />
    <glyph glyph-name="imacron" unicode="&#x12b;" horiz-adv-x="491" 
d="M109 0v1137h272v-1137h-272zM-37 1327v227h567v-227h-567z" />
    <glyph glyph-name="Iogonek" unicode="&#x12e;" horiz-adv-x="573" 
d="M147 0v1516h281v-1516h-111q-57 -43 -81.5 -73t-24.5 -70q0 -43 31.5 -68t72.5 -25q28 0 82 23v-160q-71 -26 -139 -26q-67 0 -116 20.5t-73.5 53t-35 63.5t-10.5 61q0 112 124 201z" />
    <glyph glyph-name="iogonek" unicode="&#x12f;" horiz-adv-x="491" 
d="M109 1266v250h272v-250h-272zM109 0v1137h272v-1137h-115q-57 -43 -81.5 -73t-24.5 -70q0 -43 31.5 -68t72.5 -25q28 0 82 23v-160q-72 -26 -139 -26t-116.5 20.5t-73.5 53t-35 63.5t-11 61q0 116 138 201z" />
    <glyph glyph-name="Kcommaaccent" unicode="&#x136;" horiz-adv-x="1269" 
d="M182 0v1516h281v-656h4l473 656h330l-572 -746l572 -770h-330l-473 666h-4v-666h-281zM416 -428l166 358h192l-166 -358h-192z" />
    <glyph glyph-name="kcommaaccent" unicode="&#x137;" horiz-adv-x="1187" 
d="M164 0v1516h272v-914h4l363 535h313l-409 -557l462 -580h-344l-385 532h-4v-532h-272zM375 -428l166 358h192l-166 -358h-192z" />
    <glyph glyph-name="Lacute" unicode="&#x139;" horiz-adv-x="901" 
d="M147 0v1516h281v-1254h463v-262h-744zM311 1626l-108 189l454 276l117 -209z" />
    <glyph glyph-name="lacute" unicode="&#x13a;" horiz-adv-x="491" 
d="M111 0v1516h272v-1516h-272zM106 1606l-108 188l455 277l116 -209z" />
    <glyph glyph-name="Lcommaaccent" unicode="&#x13b;" horiz-adv-x="901" 
d="M147 0v1516h281v-1254h463v-262h-744zM272 -469l166 358h193l-166 -358h-193z" />
    <glyph glyph-name="lcommaaccent" unicode="&#x13c;" horiz-adv-x="491" 
d="M111 0v1516h272v-1516h-272zM-14 -469l166 358h192l-166 -358h-192z" />
    <glyph glyph-name="Lcaron" unicode="&#x13d;" horiz-adv-x="901" 
d="M147 0v1516h281v-1254h463v-262h-744zM641 1157l166 359h192l-165 -359h-193z" />
    <glyph glyph-name="lcaron" unicode="&#x13e;" horiz-adv-x="778" 
d="M111 0v1516h272v-1516h-272zM457 1157l166 359h192l-166 -359h-192z" />
    <glyph glyph-name="Lslash" unicode="&#x141;" horiz-adv-x="983" 
d="M199 559l-146 -98v282l146 99v674h280v-486l262 176v-282l-262 -176v-486h463v-262h-743v559z" />
    <glyph glyph-name="lslash" unicode="&#x142;" horiz-adv-x="655" 
d="M70 733l133 88v695h272v-517l150 99v-293l-150 -100v-705h-272v528l-133 -86v291z" />
    <glyph glyph-name="Nacute" unicode="&#x143;" horiz-adv-x="1515" 
d="M143 0v1516h320l627 -1102h4v1102h280v-1516h-313l-633 1102h-4v-1102h-281zM618 1626l-108 189l455 276l116 -209z" />
    <glyph glyph-name="nacute" unicode="&#x144;" 
d="M111 0v1137h251v-99q28 27 46 41.5t59.5 41.5t94 41t112.5 14q85 0 181 -39.5t161 -118.5q36 -44 59.5 -100t32 -119t10.5 -99t2 -86v-614h-272v561q0 365 -230 365q-45 0 -99 -24.5t-87 -76.5q-23 -32 -34.5 -87t-13 -93t-1.5 -104v-541h-272zM475 1278l-108 188
l454 277l117 -209z" />
    <glyph glyph-name="Ncommaaccent" unicode="&#x145;" horiz-adv-x="1515" 
d="M143 0v1516h320l627 -1102h4v1102h280v-1516h-313l-633 1102h-4v-1102h-281zM498 -428l166 358h192l-166 -358h-192z" />
    <glyph glyph-name="ncommaaccent" unicode="&#x146;" 
d="M111 0v1137h251v-99q28 27 46 41.5t59.5 41.5t94 41t112.5 14q85 0 181 -39.5t161 -118.5q36 -44 59.5 -100t32 -119t10.5 -99t2 -86v-614h-272v561q0 365 -230 365q-45 0 -99 -24.5t-87 -76.5q-23 -32 -34.5 -87t-13 -93t-1.5 -104v-541h-272zM354 -428l166 358h193
l-166 -358h-193z" />
    <glyph glyph-name="Ncaron" unicode="&#x147;" horiz-adv-x="1515" 
d="M143 0v1516h320l627 -1102h4v1102h280v-1516h-313l-633 1102h-4v-1102h-281zM350 1964h297l115 -131l108 131h297l-299 -283h-215z" />
    <glyph glyph-name="ncaron" unicode="&#x148;" 
d="M111 0v1137h251v-99q28 27 46 41.5t59.5 41.5t94 41t112.5 14q85 0 181 -39.5t161 -118.5q36 -44 59.5 -100t32 -119t10.5 -99t2 -86v-614h-272v561q0 365 -230 365q-45 0 -99 -24.5t-87 -76.5q-23 -32 -34.5 -87t-13 -93t-1.5 -104v-541h-272zM207 1585h297l114 -131
l109 131h297l-299 -282h-215z" />
    <glyph glyph-name="Omacron" unicode="&#x14c;" horiz-adv-x="1720" 
d="M68 754q0 220 108 402.5t289.5 286t394.5 103.5q159 0 305 -61t253 -166t171 -252.5t64 -312.5q0 -160 -63 -305.5t-169.5 -250.5t-253 -167t-307.5 -62q-215 0 -397 105t-288.5 286t-106.5 394zM348 756q0 -139 67 -259.5t185.5 -193t259.5 -72.5t259.5 72.5t185.5 193
t67 259.5q0 143 -68 264.5t-186 192.5t-258 71t-258 -71t-186 -192.5t-68 -264.5zM578 1706v227h567v-227h-567z" />
    <glyph glyph-name="omacron" unicode="&#x14d;" horiz-adv-x="1310" 
d="M657 -37q-124 0 -237 49t-193.5 130.5t-128 193t-47.5 231.5q0 126 49 239.5t131.5 194t193.5 128t232 47.5q119 0 229.5 -46t193 -125.5t131.5 -193t49 -240.5q0 -136 -50 -252t-133.5 -193t-192.5 -120t-227 -43zM657 213q144 0 237 105.5t93 246.5q0 152 -99.5 256.5
t-230.5 104.5q-55 0 -112 -23.5t-107 -66t-82 -113.5t-32 -156q0 -156 99.5 -255t233.5 -99zM373 1327v227h567v-227h-567z" />
    <glyph glyph-name="Ohungarumlaut" unicode="&#x150;" horiz-adv-x="1720" 
d="M68 754q0 220 108 402.5t289.5 286t394.5 103.5q159 0 305 -61t253 -166t171 -252.5t64 -312.5q0 -160 -63 -305.5t-169.5 -250.5t-253 -167t-307.5 -62q-215 0 -397 105t-288.5 286t-106.5 394zM348 756q0 -139 67 -259.5t185.5 -193t259.5 -72.5t259.5 72.5t185.5 193
t67 259.5q0 143 -68 264.5t-186 192.5t-258 71t-258 -71t-186 -192.5t-68 -264.5zM506 1597l-117 156l404 334l137 -182zM1001 1597l-116 156l403 334l137 -182z" />
    <glyph glyph-name="ohungarumlaut" unicode="&#x151;" horiz-adv-x="1310" 
d="M657 -37q-124 0 -237 49t-193.5 130.5t-128 193t-47.5 231.5q0 126 49 239.5t131.5 194t193.5 128t232 47.5q119 0 229.5 -46t193 -125.5t131.5 -193t49 -240.5q0 -136 -50 -252t-133.5 -193t-192.5 -120t-227 -43zM657 213q144 0 237 105.5t93 246.5q0 152 -99.5 256.5
t-230.5 104.5q-55 0 -112 -23.5t-107 -66t-82 -113.5t-32 -156q0 -156 99.5 -255t233.5 -99zM301 1249l-117 156l404 334l137 -183zM797 1249l-117 156l403 334l138 -183z" />
    <glyph glyph-name="Racute" unicode="&#x154;" horiz-adv-x="1187" 
d="M131 0v1516h465q129 0 216.5 -25t152.5 -78q76 -62 127 -154.5t51 -211.5q0 -88 -35.5 -190t-110.5 -173q-42 -40 -91 -67t-79.5 -36.5t-81.5 -21.5l412 -559h-340l-401 580h-4v-580h-281zM412 1253v-462h180q66 0 116.5 17t78.5 41.5t46 58t23.5 61t5.5 55.5t-6.5 56.5
t-25.5 60.5t-48 56t-78 40t-112 16h-180zM455 1626l-109 189l455 276l117 -209z" />
    <glyph glyph-name="racute" unicode="&#x155;" horiz-adv-x="655" 
d="M129 0v1137h250v-101h4q24 34 41 54t46 42.5t67.5 33t89.5 10.5h22v-265q-51 -2 -91.5 -15t-66 -30.5t-44 -45t-27 -48.5t-13.5 -51.5t-5.5 -45t-0.5 -36.5v-639h-272zM250 1278l-109 188l455 277l117 -209z" />
    <glyph glyph-name="Rcommaaccent" unicode="&#x156;" horiz-adv-x="1187" 
d="M131 0v1516h465q129 0 216.5 -25t152.5 -78q76 -62 127 -154.5t51 -211.5q0 -88 -35.5 -190t-110.5 -173q-42 -40 -91 -67t-79.5 -36.5t-81.5 -21.5l412 -559h-340l-401 580h-4v-580h-281zM412 1253v-462h180q66 0 116.5 17t78.5 41.5t46 58t23.5 61t5.5 55.5t-6.5 56.5
t-25.5 60.5t-48 56t-78 40t-112 16h-180zM375 -428l166 358h192l-166 -358h-192z" />
    <glyph glyph-name="rcommaaccent" unicode="&#x157;" horiz-adv-x="655" 
d="M129 0v1137h250v-101h4q24 34 41 54t46 42.5t67.5 33t89.5 10.5h22v-265q-51 -2 -91.5 -15t-66 -30.5t-44 -45t-27 -48.5t-13.5 -51.5t-5.5 -45t-0.5 -36.5v-639h-272zM-16 -469l166 358h192l-166 -358h-192z" />
    <glyph glyph-name="Rcaron" unicode="&#x158;" horiz-adv-x="1187" 
d="M131 0v1516h465q129 0 216.5 -25t152.5 -78q76 -62 127 -154.5t51 -211.5q0 -88 -35.5 -190t-110.5 -173q-42 -40 -91 -67t-79.5 -36.5t-81.5 -21.5l412 -559h-340l-401 580h-4v-580h-281zM412 1253v-462h180q66 0 116.5 17t78.5 41.5t46 58t23.5 61t5.5 55.5t-6.5 56.5
t-25.5 60.5t-48 56t-78 40t-112 16h-180zM186 1964h297l115 -131l109 131h297l-299 -283h-216z" />
    <glyph glyph-name="rcaron" unicode="&#x159;" horiz-adv-x="655" 
d="M129 0v1137h250v-101h4q24 34 41 54t46 42.5t67.5 33t89.5 10.5h22v-265q-51 -2 -91.5 -15t-66 -30.5t-44 -45t-27 -48.5t-13.5 -51.5t-5.5 -45t-0.5 -36.5v-639h-272zM-80 1585h297l115 -131l108 131h297l-299 -282h-215z" />
    <glyph glyph-name="Sacute" unicode="&#x15a;" horiz-adv-x="1064" 
d="M25 434h294q10 -105 68 -154t133 -49q86 0 147.5 53.5t61.5 137.5q0 43 -12.5 76t-27.5 54t-55 43t-67.5 33.5t-92.5 36.5q-7 3 -11.5 4.5t-11 4t-11.5 4.5q-7 3 -21 8q-37 14 -58.5 22.5t-61.5 29.5t-65.5 41t-58 54.5t-51 72.5t-31.5 92t-13 116q0 183 126.5 307.5
t317.5 124.5q55 0 113 -15t117 -48.5t105.5 -82.5t78 -123t35.5 -163h-287q-4 48 -20.5 83t-41 53t-51 26t-57.5 8q-67 0 -111.5 -43.5t-44.5 -110.5q0 -27 6.5 -49t14 -38t28 -32t33.5 -25t45.5 -22t50 -19t59.5 -20q10 -3 15 -5q36 -12 62 -21.5t71 -31t77 -44.5t70 -60.5
t62 -80t40 -102t16 -127.5q0 -118 -43 -213t-114 -152.5t-157 -88t-178 -30.5q-61 0 -124.5 16t-128.5 52t-116 88.5t-85 132.5t-39 176zM393 1626l-108 189l454 276l117 -209z" />
    <glyph glyph-name="sacute" unicode="&#x15b;" horiz-adv-x="901" 
d="M831 827h-266q-20 99 -108 99q-48 0 -76.5 -30.5t-28.5 -68.5q0 -45 35 -66t148 -58q3 -1 5.5 -1.5t4.5 -1.5q52 -16 88.5 -30t83 -42t75.5 -61.5t49.5 -87t20.5 -119.5q0 -93 -34.5 -169.5t-91 -125.5t-127 -75.5t-144.5 -26.5q-95 0 -187 36.5t-153 113.5
q-32 40 -51.5 88t-25 79.5t-9.5 77.5h278q5 -21 9.5 -35.5t16 -37t26.5 -36.5t40.5 -25t57.5 -11q60 0 91.5 36.5t31.5 78.5q0 55 -46 86q-38 26 -191 78h-1h-1l-1 1h-1h-1l-1 1h-1h-1l-1 1h-1h-1l-1 1h-1l-2 1h-1h-1l-1 1h-1q-52 17 -95 43.5t-80 65t-58 94t-21 122.5
q0 106 58 188.5t144 123.5t179 41q65 0 128.5 -23.5t116.5 -66t87 -110.5t38 -149zM311 1278l-108 188l454 277l117 -209z" />
    <glyph glyph-name="Scaron" unicode="&#x160;" horiz-adv-x="1064" 
d="M25 434h294q10 -105 68 -154t133 -49q86 0 147.5 53.5t61.5 137.5q0 43 -12.5 76t-27.5 54t-55 43t-67.5 33.5t-92.5 36.5q-7 3 -11.5 4.5t-11 4t-11.5 4.5q-7 3 -21 8q-37 14 -58.5 22.5t-61.5 29.5t-65.5 41t-58 54.5t-51 72.5t-31.5 92t-13 116q0 183 126.5 307.5
t317.5 124.5q55 0 113 -15t117 -48.5t105.5 -82.5t78 -123t35.5 -163h-287q-4 48 -20.5 83t-41 53t-51 26t-57.5 8q-67 0 -111.5 -43.5t-44.5 -110.5q0 -27 6.5 -49t14 -38t28 -32t33.5 -25t45.5 -22t50 -19t59.5 -20q10 -3 15 -5q36 -12 62 -21.5t71 -31t77 -44.5t70 -60.5
t62 -80t40 -102t16 -127.5q0 -118 -43 -213t-114 -152.5t-157 -88t-178 -30.5q-61 0 -124.5 16t-128.5 52t-116 88.5t-85 132.5t-39 176zM125 1933h297l115 -131l108 131h297l-299 -282h-215z" />
    <glyph glyph-name="scaron" unicode="&#x161;" horiz-adv-x="901" 
d="M831 827h-266q-20 99 -108 99q-48 0 -76.5 -30.5t-28.5 -68.5q0 -45 35 -66t148 -58q3 -1 5.5 -1.5t4.5 -1.5q52 -16 88.5 -30t83 -42t75.5 -61.5t49.5 -87t20.5 -119.5q0 -93 -34.5 -169.5t-91 -125.5t-127 -75.5t-144.5 -26.5q-95 0 -187 36.5t-153 113.5
q-32 40 -51.5 88t-25 79.5t-9.5 77.5h278q5 -21 9.5 -35.5t16 -37t26.5 -36.5t40.5 -25t57.5 -11q60 0 91.5 36.5t31.5 78.5q0 55 -46 86q-38 26 -191 78h-1h-1l-1 1h-1h-1l-1 1h-1h-1l-1 1h-1h-1l-1 1h-1l-2 1h-1h-1l-1 1h-1q-52 17 -95 43.5t-80 65t-58 94t-21 122.5
q0 106 58 188.5t144 123.5t179 41q65 0 128.5 -23.5t116.5 -66t87 -110.5t38 -149zM43 1585h297l115 -131l108 131h297l-299 -282h-215z" />
    <glyph glyph-name="Tcommaaccent" unicode="&#x162;" horiz-adv-x="860" 
d="M293 0v1253h-281v263h844v-263h-283v-1253h-280zM170 -469l166 358h192l-166 -358h-192z" />
    <glyph glyph-name="Tcommaaccent" unicode="&#x21a;" horiz-adv-x="860" 
d="M293 0v1253h-281v263h844v-263h-283v-1253h-280zM170 -469l166 358h192l-166 -358h-192z" />
    <glyph glyph-name="tcommaaccent" unicode="&#x163;" horiz-adv-x="614" 
d="M176 0v895h-133v242h133v379h273v-379h163v-242h-163v-895h-273zM86 -469l166 358h192l-165 -358h-193z" />
    <glyph glyph-name="tcommaaccent" unicode="&#x21b;" horiz-adv-x="614" 
d="M176 0v895h-133v242h133v379h273v-379h163v-242h-163v-895h-273zM86 -469l166 358h192l-165 -358h-193z" />
    <glyph glyph-name="Tcaron" unicode="&#x164;" horiz-adv-x="860" 
d="M293 0v1253h-281v263h844v-263h-283v-1253h-280zM23 1964h296l115 -131l109 131h297l-299 -283h-215z" />
    <glyph glyph-name="tcaron" unicode="&#x165;" horiz-adv-x="819" 
d="M176 0v895h-133v242h133v379h273v-379h163v-242h-163v-895h-273zM539 1251l166 359h192l-166 -359h-192z" />
    <glyph glyph-name="Umacron" unicode="&#x16a;" horiz-adv-x="1310" 
d="M113 1516h282l-2 -963q0 -322 262 -322q263 0 263 322v963h280v-963q0 -236 -88 -358q-71 -100 -188.5 -163t-264.5 -63q-82 0 -157 21t-131 55.5t-95 69t-67 71.5q-94 127 -94 367v963zM373 1706v227h567v-227h-567z" />
    <glyph glyph-name="umacron" unicode="&#x16b;" 
d="M842 1137h272v-1137h-250v115h-4q-22 -30 -41.5 -50.5t-55 -47t-85.5 -40.5t-111 -14q-139 0 -233 53t-148 127q-29 42 -48 96.5t-26 117t-8.5 98t-1.5 88.5v594h273v-580v-36.5t2.5 -43.5t6 -50.5t12 -50.5t20 -50.5t29.5 -43.5t41 -37t55.5 -23t70.5 -9q62 0 108 27.5
t72 76.5t38 108t12 130v582zM332 1327v227h567v-227h-567z" />
    <glyph glyph-name="Uring" unicode="&#x16e;" horiz-adv-x="1310" 
d="M113 1516h282l-2 -963q0 -322 262 -322q263 0 263 322v963h280v-963q0 -236 -88 -358q-71 -100 -188.5 -163t-264.5 -63q-82 0 -157 21t-131 55.5t-95 69t-67 71.5q-94 127 -94 367v963zM436 1763q0 92 64 157t155 65q92 0 157 -65t65 -157q0 -90 -65.5 -154.5
t-156.5 -64.5q-90 0 -154.5 64.5t-64.5 154.5zM573 1763q0 -34 24 -58t58 -24t59 23.5t25 58.5t-24.5 59.5t-59.5 24.5q-34 0 -58 -24.5t-24 -59.5z" />
    <glyph glyph-name="uring" unicode="&#x16f;" 
d="M842 1137h272v-1137h-250v115h-4q-22 -30 -41.5 -50.5t-55 -47t-85.5 -40.5t-111 -14q-139 0 -233 53t-148 127q-29 42 -48 96.5t-26 117t-8.5 98t-1.5 88.5v594h273v-580v-36.5t2.5 -43.5t6 -50.5t12 -50.5t20 -50.5t29.5 -43.5t41 -37t55.5 -23t70.5 -9q62 0 108 27.5
t72 76.5t38 108t12 130v582zM395 1487q0 92 64 156.5t155 64.5q92 0 157 -64.5t65 -156.5q0 -90 -65.5 -154.5t-156.5 -64.5q-90 0 -154.5 64.5t-64.5 154.5zM532 1487q0 -34 24 -58t58 -24t59 23.5t25 58.5t-24.5 59.5t-59.5 24.5q-34 0 -58 -24.5t-24 -59.5z" />
    <glyph glyph-name="Uhungarumlaut" unicode="&#x170;" horiz-adv-x="1310" 
d="M113 1516h282l-2 -963q0 -322 262 -322q263 0 263 322v963h280v-963q0 -236 -88 -358q-71 -100 -188.5 -163t-264.5 -63q-82 0 -157 21t-131 55.5t-95 69t-67 71.5q-94 127 -94 367v963zM301 1597l-117 156l404 334l137 -182zM797 1597l-117 156l403 334l138 -182z" />
    <glyph glyph-name="uhungarumlaut" unicode="&#x171;" 
d="M842 1137h272v-1137h-250v115h-4q-22 -30 -41.5 -50.5t-55 -47t-85.5 -40.5t-111 -14q-139 0 -233 53t-148 127q-29 42 -48 96.5t-26 117t-8.5 98t-1.5 88.5v594h273v-580v-36.5t2.5 -43.5t6 -50.5t12 -50.5t20 -50.5t29.5 -43.5t41 -37t55.5 -23t70.5 -9q62 0 108 27.5
t72 76.5t38 108t12 130v582zM260 1249l-117 156l404 334l137 -183zM756 1249l-117 156l403 334l138 -183z" />
    <glyph glyph-name="Uogonek" unicode="&#x172;" horiz-adv-x="1310" 
d="M113 553v963h282l-2 -963q0 -322 262 -322q263 0 263 322v963h280v-963q0 -236 -88 -358q-74 -104 -188 -162q-69 -52 -95 -91.5t-26 -84.5q0 -43 31.5 -68t72.5 -25q28 0 82 23v-160q-71 -26 -139 -26q-67 0 -116.5 20.5t-73.5 53t-35 63.5t-11 61q0 95 103 174
q-20 -4 -58 -4q-82 0 -157 21t-131 55.5t-95 69t-67 71.5q-94 127 -94 367z" />
    <glyph glyph-name="uogonek" unicode="&#x173;" 
d="M842 1137h272v-1137h-90q-57 -43 -81.5 -73t-24.5 -70q0 -43 31.5 -68t72.5 -25q28 0 82 23v-160q-72 -26 -139 -26t-116.5 20.5t-73.5 53t-35 63.5t-11 61q0 116 135 201v115h-4q-22 -30 -41.5 -50.5t-55 -47t-85.5 -40.5t-111 -14q-139 0 -233 53t-148 127
q-29 42 -48 96.5t-26 117t-8.5 98t-1.5 88.5v594h273v-580v-36.5t2.5 -43.5t6 -50.5t12 -50.5t20 -50.5t29.5 -43.5t41 -37t55.5 -23t70.5 -9q62 0 108 27.5t72 76.5t38 108t12 130v582z" />
    <glyph glyph-name="Zacute" unicode="&#x179;" horiz-adv-x="1024" 
d="M39 229l579 1024h-548v263h876v-244l-575 -1010h614v-262h-946v229zM373 1626l-109 189l455 276l117 -209z" />
    <glyph glyph-name="zacute" unicode="&#x17a;" horiz-adv-x="942" 
d="M41 0v250l504 637h-447v250h772v-250l-503 -637h538v-250h-864zM332 1278l-109 188l455 277l117 -209z" />
    <glyph glyph-name="Zdotaccent" unicode="&#x17b;" horiz-adv-x="1024" 
d="M39 229l579 1024h-548v263h876v-244l-575 -1010h614v-262h-946v229zM377 1681v273h272v-273h-272z" />
    <glyph glyph-name="zdotaccent" unicode="&#x17c;" horiz-adv-x="942" 
d="M41 0v250l504 637h-447v250h772v-250l-503 -637h538v-250h-864zM336 1303v272h272v-272h-272z" />
    <glyph glyph-name="Zcaron" unicode="&#x17d;" horiz-adv-x="1024" 
d="M39 229l579 1024h-548v263h876v-244l-575 -1010h614v-262h-946v229zM156 1933h297l114 -131l109 131h297l-299 -282h-215z" />
    <glyph glyph-name="zcaron" unicode="&#x17e;" horiz-adv-x="942" 
d="M41 0v250l504 637h-447v250h772v-250l-503 -637h538v-250h-864zM115 1585h297l114 -131l109 131h297l-299 -282h-215z" />
    <glyph glyph-name="Scommaaccent" unicode="&#x218;" horiz-adv-x="1064" 
d="M25 434h294q10 -105 68 -154t133 -49q86 0 147.5 53.5t61.5 137.5q0 43 -12.5 76t-27.5 54t-55 43t-67.5 33.5t-92.5 36.5q-7 3 -11.5 4.5t-11 4t-11.5 4.5q-7 3 -21 8q-37 14 -58.5 22.5t-61.5 29.5t-65.5 41t-58 54.5t-51 72.5t-31.5 92t-13 116q0 183 126.5 307.5
t317.5 124.5q55 0 113 -15t117 -48.5t105.5 -82.5t78 -123t35.5 -163h-287q-4 48 -20.5 83t-41 53t-51 26t-57.5 8q-67 0 -111.5 -43.5t-44.5 -110.5q0 -27 6.5 -49t14 -38t28 -32t33.5 -25t45.5 -22t50 -19t59.5 -20q10 -3 15 -5q36 -12 62 -21.5t71 -31t77 -44.5t70 -60.5
t62 -80t40 -102t16 -127.5q0 -118 -43 -213t-114 -152.5t-157 -88t-178 -30.5q-61 0 -124.5 16t-128.5 52t-116 88.5t-85 132.5t-39 176zM272 -469l166 358h193l-166 -358h-193z" />
    <glyph glyph-name="scommaaccent" unicode="&#x219;" horiz-adv-x="901" 
d="M831 827h-266q-20 99 -108 99q-48 0 -76.5 -30.5t-28.5 -68.5q0 -45 35 -66t148 -58q3 -1 5.5 -1.5t4.5 -1.5q52 -16 88.5 -30t83 -42t75.5 -61.5t49.5 -87t20.5 -119.5q0 -93 -34.5 -169.5t-91 -125.5t-127 -75.5t-144.5 -26.5q-95 0 -187 36.5t-153 113.5
q-32 40 -51.5 88t-25 79.5t-9.5 77.5h278q5 -21 9.5 -35.5t16 -37t26.5 -36.5t40.5 -25t57.5 -11q60 0 91.5 36.5t31.5 78.5q0 55 -46 86q-38 26 -191 78h-1h-1l-1 1h-1h-1l-1 1h-1h-1l-1 1h-1h-1l-1 1h-1l-2 1h-1h-1l-1 1h-1q-52 17 -95 43.5t-80 65t-58 94t-21 122.5
q0 106 58 188.5t144 123.5t179 41q65 0 128.5 -23.5t116.5 -66t87 -110.5t38 -149zM190 -469l166 358h193l-166 -358h-193z" />
    <glyph glyph-name="caron" unicode="&#x2c7;" horiz-adv-x="1105" 
d="M145 1585h297l115 -131l109 131h297l-299 -282h-215z" />
    <glyph glyph-name="breve" unicode="&#x2d8;" horiz-adv-x="983" 
d="M86 1577h221q51 -82 185 -82q135 0 186 82h221q-20 -133 -125.5 -207t-281.5 -74q-174 0 -280 74t-126 207z" />
    <glyph glyph-name="dotaccent" unicode="&#x2d9;" horiz-adv-x="573" 
d="M152 1303v272h272v-272h-272z" />
    <glyph glyph-name="ogonek" unicode="&#x2db;" horiz-adv-x="696" 
d="M338 18h143q-35 -26 -46.5 -34.5t-34 -28.5t-29.5 -31.5t-14 -29.5t-7 -37q0 -43 31.5 -68t73.5 -25q28 0 82 23v-160q-72 -26 -140 -26q-67 0 -116 20.5t-73.5 53t-35 63.5t-10.5 61q0 130 176 219z" />
    <glyph glyph-name="hungarumlaut" unicode="&#x2dd;" horiz-adv-x="1433" 
d="M362 1249l-116 156l403 334l137 -183zM858 1249l-117 156l404 334l137 -183z" />
    <glyph glyph-name="Delta" unicode="&#x394;" horiz-adv-x="1253" 
d="M594 903l-356 -762h663zM668 1417l585 -1417h-1249z" />
    <glyph glyph-name="Delta" unicode="&#x2206;" horiz-adv-x="1253" 
d="M594 903l-356 -762h663zM668 1417l585 -1417h-1249z" />
    <glyph glyph-name="endash" unicode="&#x2013;" horiz-adv-x="1024" 
d="M72 471v242h880v-242h-880z" />
    <glyph glyph-name="emdash" unicode="&#x2014;" horiz-adv-x="2048" 
d="M72 471v242h1904v-242h-1904z" />
    <glyph glyph-name="quoteleft" unicode="&#x2018;" horiz-adv-x="573" 
d="M420 1227v-273h-273v289q0 63 19 113t47.5 79.5t66 48.5t71.5 26t67 6v-140q-24 -4 -39.5 -8.5t-36.5 -16.5t-32 -34.5t-11 -54.5q0 -27 2 -35h119z" />
    <glyph glyph-name="quoteright" unicode="&#x2019;" horiz-adv-x="573" 
d="M147 1243v273h273v-289q0 -63 -18.5 -113t-47.5 -79.5t-66 -48.5t-71 -26t-67 -6v138q26 5 40.5 10t35.5 17t31.5 34t10.5 55v35h-121z" />
    <glyph glyph-name="quotesinglbase" unicode="&#x201a;" horiz-adv-x="573" 
d="M147 0v272h273v-286q0 -64 -19 -114t-47 -79.5t-66 -48.5t-71.5 -26t-66.5 -7v139q24 4 40 9t36.5 16.5t31 34t10.5 55.5v35h-121z" />
    <glyph glyph-name="quotedblleft" unicode="&#x201c;" horiz-adv-x="983" 
d="M416 1227v-273h-273v289q0 63 19 113t47.5 79.5t66 48.5t71.5 26t67 6v-140q-24 -4 -39.5 -8.5t-36.5 -16.5t-32 -34.5t-11 -54.5q0 -8 1 -20t1 -15h119zM840 1227v-273h-273v289q0 63 19 113t47.5 79.5t66 48.5t71.5 26t67 6v-140q-24 -4 -39.5 -8.5t-36.5 -16.5
t-32 -34.5t-11 -54.5q0 -8 1 -20t1 -15h119z" />
    <glyph glyph-name="quotedblright" unicode="&#x201d;" horiz-adv-x="983" 
d="M143 1243v273h273v-289q0 -63 -18.5 -113t-47 -79.5t-66 -48.5t-72 -26t-67.5 -6v138q26 5 40.5 10t36 17t32 34t10.5 55v35h-121zM567 1243v273h273v-289q0 -63 -18.5 -113t-47 -79.5t-66 -48.5t-72 -26t-67.5 -6v138q26 5 40.5 10t36 17t32 34t10.5 55v35h-121z" />
    <glyph glyph-name="quotedblbase" unicode="&#x201e;" horiz-adv-x="983" 
d="M143 0v272h273v-286q0 -64 -18.5 -114t-47 -79.5t-66.5 -48.5t-71.5 -26t-67.5 -7v139q19 3 31.5 6t31 11.5t29.5 19.5t19 31.5t8 46.5v35h-121zM567 0v272h273v-286q0 -64 -18.5 -114t-47 -79.5t-66.5 -48.5t-71.5 -26t-67.5 -7v139q19 3 31.5 6t31 11.5t29.5 19.5
t19 31.5t8 46.5v35h-121z" />
    <glyph glyph-name="dagger" unicode="&#x2020;" horiz-adv-x="1146" 
d="M711 1516v-379h331v-232h-331v-1196h-273v1196h-334v232h334v379h273z" />
    <glyph glyph-name="daggerdbl" unicode="&#x2021;" horiz-adv-x="1146" 
d="M709 1516v-314h333v-229h-333v-606h333v-230h-333v-428h-273v428h-332v230h332v606h-332v229h332v314h273z" />
    <glyph glyph-name="bullet" unicode="&#x2022;" 
d="M618 1090q127 0 218.5 -93.5t91.5 -224.5t-92 -224t-220 -93q-130 0 -221.5 93.5t-91.5 223.5q0 129 90.5 223.5t224.5 94.5z" />
    <glyph glyph-name="ellipsis" unicode="&#x2026;" horiz-adv-x="2048" 
d="M205 0v272h272v-272h-272zM887 0v272h272v-272h-272zM1569 0v272h272v-272h-272z" />
    <glyph glyph-name="perthousand" unicode="&#x2030;" horiz-adv-x="2621" 
d="M74 1176q0 154 108 262t260 108q154 0 261.5 -108t107.5 -262q0 -153 -108 -261t-261 -108q-151 0 -259.5 108t-108.5 261zM301 1176q0 -57 41.5 -99.5t99.5 -42.5q57 0 99.5 42t42.5 102t-41.5 100.5t-100.5 40.5t-100 -41t-41 -102zM944 340q0 154 108.5 262.5
t262.5 108.5q152 0 260 -108.5t108 -262.5t-109 -262.5t-259 -108.5q-152 0 -261.5 108t-109.5 263zM1171 340q0 -59 42 -101t102 -42q57 0 99 41.5t42 101.5q0 61 -41.5 102t-99.5 41q-61 0 -102.5 -42t-41.5 -101zM1763 340q0 154 108.5 262.5t262.5 108.5
q152 0 260.5 -108.5t108.5 -262.5t-109.5 -262.5t-259.5 -108.5q-152 0 -261.5 108t-109.5 263zM1991 340q0 -59 41.5 -101t101.5 -42q58 0 99.5 41.5t41.5 101.5q0 61 -41.5 102t-99.5 41q-61 0 -102 -42t-41 -101zM459 0l626 1516h209l-628 -1516h-207z" />
    <glyph glyph-name="guilsinglleft" unicode="&#x2039;" horiz-adv-x="491" 
d="M389 221l-287 268v207l287 265v-252l-139 -117l139 -119v-252z" />
    <glyph glyph-name="guilsinglright" unicode="&#x203a;" horiz-adv-x="491" 
d="M102 221v252l140 119l-140 117v252l287 -265v-207z" />
    <glyph glyph-name="Euro" unicode="&#x20ac;" horiz-adv-x="1146" 
d="M1057 1466v-272q-41 41 -112.5 68.5t-168.5 27.5q-260 0 -305 -266h520l-65 -201h-480v-57q0 -46 3 -70h434l-66 -202h-344q45 -269 305 -269q178 0 279 97v-277q-35 -28 -119.5 -51t-200.5 -23q-222 0 -358.5 129.5t-175.5 393.5h-166l65 202h80q-2 16 -2 68q0 41 2 59
h-145l65 201h97q89 524 538 524q105 0 191.5 -25.5t128.5 -56.5z" />
    <glyph glyph-name="trademark" unicode="&#x2122;" horiz-adv-x="2048" 
d="M193 606v740h-175v170h543v-170h-176v-740h-192zM682 606v910h258l244 -660l241 660h256v-910h-192v627h-4l-223 -627h-160l-223 627h-5v-627h-192z" />
    <glyph glyph-name="partialdiff" unicode="&#x2202;" horiz-adv-x="1011" 
d="M213 1366l-80 102q52 23 84 34.5t89 22.5t120 11q147 0 265 -81t206 -214q40 -60 77.5 -193.5t37.5 -242.5q0 -113 -21.5 -246t-62.5 -223q-57 -123 -135.5 -212.5t-165.5 -125.5q-97 -41 -183 -41q-71 0 -128 12.5t-119 50.5q-73 45 -123.5 133.5t-50.5 198.5
q0 79 19.5 149t37.5 103t47 74q57 82 144 124t188 42q89 0 154 -26t137 -89q10 53 14 193q1 69 -21 168.5t-45 156.5q-20 50 -111 119.5t-161 69.5q-53 0 -102 -17.5t-111 -52.5zM246 303q0 -202 78 -231q76 -27 149 -4q29 12 70.5 63t66.5 105q75 162 115 376
q-97 125 -197 123q-124 -3 -188 -102q-94 -144 -94 -330z" />
    <glyph glyph-name="summation" unicode="&#x2211;" horiz-adv-x="1460" 
d="M1264 1526l12 -326h-66q-17 54 -37 88.5t-55 61.5t-88.5 39t-132.5 12h-405l540 -701l-586 -669h629q44 0 74 4t60.5 16.5t53.5 35t45 60t44 91.5h71q-41 -167 -55 -238.5t-33 -220.5q-16 2 -49.5 8.5t-59 10t-48.5 3.5h-1031q-20 0 -59 -3t-59 -3l714 815l-710 930
q17 -1 53 -4t53 -4q56 -6 107 -6h1018z" />
    <glyph glyph-name="radical" unicode="&#x221a;" horiz-adv-x="1124" 
d="M72 883l-52 104l302 148l292 -605l205 1211l230 -39l-293 -1796l-514 1059z" />
    <glyph glyph-name="notequal" unicode="&#x2260;" horiz-adv-x="1124" 
d="M350 412l123 213h-442v245h583l172 297l213 -123l-100 -174h207v-245h-350l-123 -213h473v-246h-614l-154 -266l-213 123l84 143h-178v246h319z" />
    <glyph glyph-name="lessequal" unicode="&#x2264;" horiz-adv-x="1124" 
d="M59 0v246h1018v-246h-1018zM1077 608v-235l-1018 422v225l1018 422v-236l-721 -299z" />
    <glyph glyph-name="greaterequal" unicode="&#x2265;" horiz-adv-x="1124" 
d="M1071 246v-246h-1018v246h1018zM53 373v235l721 299l-721 299v236l1018 -422v-225z" />
    <glyph glyph-name="lozenge" unicode="&#x25ca;" horiz-adv-x="1011" 
d="M582 0h-152l-410 772l410 754h152l409 -754zM741 772l-235 438l-236 -438l236 -450z" />
    </font>
</defs>
</svg>
